<?xml version="1.0" standalone="no"?>
<!DOCTYPE svg PUBLIC "-//W3C//DTD SVG 20010904//EN"
 "http://www.w3.org/TR/2001/REC-SVG-20010904/DTD/svg10.dtd">
<svg version="1.0" xmlns="http://www.w3.org/2000/svg"
 width="360.000000pt" height="360.000000pt" viewBox="0 0 360.000000 360.000000"
 preserveAspectRatio="xMidYMid meet">

<g transform="translate(0.000000,360.000000) scale(0.100000,-0.100000)"
fill="#000000" stroke="none">
<path d="M1957 2253 c-4 -3 -20 -6 -37 -5 -16 0 -30 -4 -30 -9 0 -12 22 -12
54 1 21 7 26 6 26 -5 0 -9 -6 -12 -17 -9 -15 5 -15 3 1 -10 11 -9 25 -16 32
-16 6 0 30 -20 53 -45 23 -25 46 -43 52 -39 6 3 15 -8 22 -25 7 -18 19 -31 29
-31 10 0 15 -5 13 -12 -8 -20 55 -50 118 -55 75 -7 97 10 97 76 0 35 -3 42
-11 31 -8 -12 -9 -10 -7 9 10 84 232 88 252 5 4 -15 2 -48 -5 -74 -10 -40 -10
-50 5 -72 9 -14 31 -32 49 -39 18 -7 40 -24 51 -37 10 -13 24 -21 32 -18 7 3
16 1 19 -4 4 -6 13 -10 20 -10 16 0 9 27 -12 48 -7 8 -11 18 -7 23 3 6 0 17
-7 25 -10 13 -10 17 2 24 11 7 4 19 -34 57 -52 54 -57 74 -28 133 18 37 18 40
2 40 -9 0 -22 5 -28 11 -14 14 -447 17 -586 5 -85 -8 -89 -7 -94 13 -5 21 -14
26 -26 14z m776 -260 c-7 -2 -19 -2 -25 0 -7 3 -2 5 12 5 14 0 19 -2 13 -5z"/>
<path d="M1762 2235 c-48 -15 -300 -17 -308 -3 -3 5 -12 4 -20 -3 -7 -6 -30
-9 -49 -7 -34 4 -35 3 -31 -24 4 -29 -22 -58 -52 -58 -7 0 -20 -7 -28 -15 -8
-8 -20 -12 -27 -9 -7 2 -18 -9 -25 -26 -12 -26 -12 -34 1 -54 15 -22 14 -23
-17 -34 -18 -7 -41 -12 -51 -12 -14 0 -16 -3 -8 -11 16 -16 97 -2 117 19 8 10
14 31 13 47 l-2 30 155 0 155 0 22 41 c18 32 37 48 87 72 36 17 83 34 106 38
44 7 65 24 28 23 -13 0 -42 -6 -66 -14z"/>
<path d="M1045 2213 c-34 -3 -43 -9 -63 -43 -12 -21 -22 -48 -22 -59 0 -23
-45 -51 -82 -51 -13 0 -31 -6 -40 -14 -15 -11 -16 -18 -5 -51 l11 -38 105 7
c57 3 118 6 136 6 31 0 32 1 34 51 2 64 14 88 52 101 25 9 69 68 69 93 0 5
-127 4 -195 -2z m30 -103 c-3 -6 -17 -7 -29 -4 -18 4 -30 -3 -55 -34 -33 -42
-39 -67 -18 -75 6 -3 -4 -6 -24 -6 -20 -1 -39 2 -43 7 -4 4 -13 7 -19 7 -7 0
-12 7 -12 15 0 8 15 18 38 23 25 6 46 21 63 43 22 29 33 34 66 34 24 0 37 -4
33 -10z m0 -29 c3 -5 1 -12 -5 -16 -5 -3 -10 1 -10 9 0 18 6 21 15 7z"/>
<path d="M1255 2184 c-20 -20 -35 -38 -32 -40 2 -2 27 3 55 11 44 14 52 19 52
40 0 37 -32 32 -75 -11z"/>
<path d="M893 2198 c-49 -13 -54 -31 -7 -24 22 3 46 5 55 6 8 0 24 6 34 14 18
13 17 14 -15 14 -19 -1 -49 -5 -67 -10z"/>
<path d="M2720 2157 c-32 -16 -39 -63 -13 -83 26 -20 29 -18 47 29 26 69 19
81 -34 54z"/>
<path d="M1814 2140 c-22 -5 -82 -29 -134 -54 -52 -25 -96 -43 -99 -41 -2 3 2
5 9 5 7 0 11 2 8 5 -3 4 -18 3 -34 -1 -25 -7 -26 -8 -9 -15 22 -9 -115 -4
-181 6 -48 8 -84 -14 -84 -52 0 -27 -27 -43 -74 -43 -19 0 -38 -5 -41 -10 -4
-6 -16 -8 -27 -4 -18 5 -20 3 -14 -19 6 -25 -9 -48 -16 -25 -2 6 -12 9 -21 5
-10 -4 -14 -12 -11 -22 3 -8 1 -15 -5 -15 -11 0 -15 13 -12 38 1 6 -3 12 -9
12 -5 0 -10 9 -10 20 0 26 -26 26 -40 1 -8 -16 -5 -23 15 -39 14 -11 28 -34
31 -50 8 -41 50 -53 74 -22 21 28 89 29 224 3 22 -4 28 -2 24 8 -4 11 6 14 39
15 27 1 39 -2 31 -7 -8 -6 -1 -9 22 -9 20 0 30 -4 25 -9 -6 -4 -113 -14 -240
-20 -200 -10 -428 -27 -475 -35 -31 -6 314 4 530 16 345 18 669 10 515 -13
-27 -4 -78 -8 -111 -8 -34 -1 -77 -7 -95 -15 -33 -14 -30 -15 76 -18 102 -3
99 -4 -41 -6 -173 -2 -213 -11 -356 -79 -94 -45 -128 -73 -88 -73 28 0 52 -42
45 -76 -4 -24 -4 -25 4 -9 9 18 10 17 10 -7 1 -25 -1 -27 -22 -17 -12 5 -30
30 -41 55 -20 48 -42 56 -71 27 -16 -15 -14 -18 19 -38 63 -38 86 -65 86 -102
0 -54 -26 -92 -76 -113 -25 -11 -44 -26 -44 -35 0 -17 -6 -18 -35 -5 -16 7
-17 9 -3 9 9 1 23 7 30 15 8 7 33 23 56 35 49 25 73 81 53 120 -12 22 -87 81
-102 81 -15 0 -129 -119 -129 -135 0 -9 -14 -22 -30 -29 -17 -7 -28 -14 -26
-17 2 -2 1 -25 -3 -51 -7 -42 -5 -50 14 -68 l23 -21 6 26 c4 14 2 34 -4 44 -7
14 -6 27 5 48 8 15 15 33 15 39 0 6 9 23 21 38 17 22 24 25 36 14 12 -10 14
-9 13 3 -5 33 -1 42 15 29 12 -10 18 -10 30 0 17 14 -51 -167 -71 -191 -8 -8
-14 -23 -14 -33 0 -11 -12 -22 -30 -29 -28 -11 -37 -35 -11 -30 6 2 11 -7 11
-18 0 -16 5 -20 20 -16 12 3 20 0 20 -8 0 -8 7 -11 19 -8 11 3 29 -2 41 -10
11 -8 32 -12 46 -9 18 3 22 7 13 13 -17 10 -4 23 16 16 8 -4 15 -18 15 -32 0
-14 5 -25 10 -25 6 0 10 4 10 9 0 5 18 7 40 4 23 -3 40 -1 40 4 0 13 -45 54
-53 48 -4 -3 -3 0 2 6 6 7 21 9 35 5 24 -6 30 -18 29 -53 -1 -9 21 -13 76 -14
76 0 77 -16 1 -19 l-35 -2 34 -10 c21 -6 48 -6 70 -1 20 5 50 6 68 1 17 -5 41
-4 55 1 20 9 19 10 -16 10 -58 1 -36 13 34 18 38 2 60 0 60 -6 0 -6 -12 -11
-27 -11 -14 0 -24 -3 -20 -6 7 -8 237 -12 237 -5 0 8 54 6 67 -2 6 -4 14 0 17
9 5 12 9 14 20 5 7 -6 21 -9 30 -5 9 3 16 1 16 -5 0 -9 5 -9 21 -1 11 7 27 9
35 6 8 -3 14 0 14 7 0 8 3 7 9 -2 10 -15 59 -19 105 -7 17 4 33 2 42 -5 11 -9
14 -8 14 5 0 9 7 16 15 16 12 0 14 7 9 27 -4 15 -7 33 -7 40 0 6 -3 11 -6 11
-17 -3 -83 35 -96 56 -24 36 -209 99 -295 100 -75 1 -120 -20 -120 -56 0 -29
29 -49 54 -36 10 5 30 8 45 5 14 -3 45 -2 68 2 l42 8 -17 -23 c-10 -14 -32
-25 -57 -29 -22 -4 -45 -11 -52 -17 -6 -5 -50 -10 -97 -11 -98 -2 -104 2 -125
85 -7 26 -16 50 -21 53 -4 3 -24 -2 -44 -10 -65 -27 -109 -22 -169 19 -30 21
-60 49 -66 62 -6 14 -7 23 -2 20 5 -3 11 4 14 15 4 16 11 19 27 14 19 -6 21
-4 15 14 -4 13 -2 21 5 21 8 0 11 -13 8 -35 -2 -19 0 -35 4 -35 4 0 8 4 8 10
0 5 7 18 16 29 16 18 18 16 50 -47 18 -37 33 -62 34 -55 0 8 9 9 29 3 38 -11
83 16 101 59 17 42 22 35 9 -13 -10 -36 -1 -66 21 -66 17 0 20 34 5 43 -20 11
-2 37 26 37 10 0 23 8 28 18 7 11 13 13 18 6 9 -11 53 -14 53 -3 0 3 10 6 23
5 12 -1 28 5 35 14 12 13 13 13 8 -2 -4 -14 0 -18 19 -18 l25 0 -21 21 c-23
23 -82 30 -130 15 -23 -7 -29 -3 -48 27 -26 42 -27 57 -3 31 9 -10 31 -19 47
-19 17 -1 47 -4 68 -7 33 -6 38 -5 33 9 -4 11 -2 14 9 9 21 -8 45 3 45 20 0 8
6 14 13 14 7 0 28 13 47 28 40 32 90 56 90 43 0 -5 -17 -18 -37 -28 -24 -12
-40 -28 -46 -48 -5 -16 -19 -40 -30 -52 l-20 -23 21 0 c11 0 24 -5 28 -12 4
-6 3 -9 -2 -5 -5 3 -18 -1 -28 -9 -17 -12 -17 -14 -2 -20 9 -3 32 -4 51 -2 25
3 35 0 35 -10 0 -9 6 -12 16 -8 9 3 18 6 20 6 2 0 4 7 4 15 0 8 6 15 14 15 22
0 46 -11 46 -22 0 -5 -4 -6 -10 -3 -5 3 -10 2 -10 -3 0 -6 11 -9 24 -8 13 0
22 6 19 12 -2 7 0 15 6 19 6 3 14 -1 17 -9 9 -24 26 -19 22 6 -2 11 3 23 10
25 7 3 12 -4 12 -17 0 -12 5 -18 10 -15 6 3 10 15 10 26 0 10 3 19 6 19 12 0
60 -58 56 -69 -2 -6 1 -11 6 -11 14 0 33 26 25 33 -3 4 -1 7 5 7 7 0 12 -4 12
-10 0 -20 32 -9 62 22 30 31 73 60 110 74 23 8 33 48 10 40 -9 -4 -6 3 8 14
30 23 58 25 80 5 25 -22 111 -23 145 -1 l28 18 -31 14 c-47 19 -39 24 27 18
70 -8 73 -4 77 83 3 57 2 63 -16 63 -24 0 -25 -8 -4 -31 36 -40 -29 -119 -80
-99 -24 9 -83 7 -93 -4 -15 -15 -31 -5 -25 16 5 19 3 21 -29 14 -62 -14 -83
-16 -259 -19 -96 -2 -148 -2 -115 0 l61 4 -4 34 c-4 30 -1 36 24 45 20 8 25
13 15 19 -10 6 -8 10 6 16 10 5 25 7 33 6 10 -2 12 1 5 8 -5 5 -39 14 -75 20
l-65 9 65 0 c260 1 324 3 310 12 -8 5 -23 7 -33 4 -10 -3 -24 0 -32 6 -8 7
-37 12 -65 12 -27 0 -50 4 -50 8 0 12 39 20 100 20 51 1 53 2 31 14 l-24 13
34 17 c34 16 34 16 34 83 -1 92 -21 158 -60 197 -27 26 -41 19 -41 -20 0 -29
-7 -42 -34 -64 -40 -33 -36 -60 9 -60 24 0 32 -5 37 -25 9 -36 -1 -67 -38
-113 -38 -47 -67 -59 -160 -66 -36 -2 -75 -9 -86 -15 -28 -15 -143 -13 -163 2
-21 16 -36 69 -49 179 -12 95 -6 142 16 134 9 -3 14 2 14 13 0 39 -99 60 -196
41z m-614 -260 c0 -5 -2 -10 -4 -10 -3 0 -8 5 -11 10 -3 6 -1 10 4 10 6 0 11
-4 11 -10z m30 -11 c0 -5 -4 -9 -10 -9 -5 0 -10 7 -10 16 0 8 5 12 10 9 6 -3
10 -10 10 -16z m-60 -3 c0 -7 -8 -16 -17 -19 -10 -2 -26 -8 -36 -12 -13 -6
-16 -3 -11 9 3 9 14 16 24 16 11 0 22 5 25 10 9 14 15 12 15 -4z m780 4 c0 -5
-4 -10 -10 -10 -5 0 -10 5 -10 10 0 6 5 10 10 10 6 0 10 -4 10 -10z m-446 -8
c3 -5 -1 -9 -9 -9 -8 0 -12 4 -9 9 3 4 7 8 9 8 2 0 6 -4 9 -8z m73 -18 c-9 -9
-28 6 -21 18 4 6 10 6 17 -1 6 -6 8 -13 4 -17z m308 6 c19 -1 18 -2 -3 -12
-18 -9 -26 -8 -39 5 -15 14 -14 15 3 12 10 -2 28 -4 39 -5z m-24 -37 c13 -15
12 -16 -11 -10 -14 4 -44 7 -67 7 -62 0 -53 15 11 18 40 2 57 -2 67 -15z m129
-23 c12 -8 11 -10 -7 -10 -13 0 -23 5 -23 10 0 13 11 13 30 0z m80 -54 c0 -11
-19 -15 -25 -6 -3 5 1 10 9 10 9 0 16 -2 16 -4z m-125 -146 c4 -7 -40 -9 -127
-8 l-133 2 125 6 c69 3 126 7 127 8 1 1 5 -2 8 -8z m-277 -7 c-10 -2 -26 -2
-35 0 -10 3 -2 5 17 5 19 0 27 -2 18 -5z m677 -43 c8 -16 15 -33 15 -37 -1
-13 -40 41 -40 55 0 20 9 14 25 -18z m-773 -61 c36 -26 30 -37 -7 -13 -26 17
-55 62 -55 86 0 7 8 -2 17 -20 9 -18 29 -42 45 -53z m815 -45 c-3 -3 -12 -4
-19 -1 -8 3 -5 6 6 6 11 1 17 -2 13 -5z m-847 -108 c0 -3 -11 -6 -25 -6 -26 0
-36 25 -13 32 12 4 38 -14 38 -26z m-63 -182 c-3 -3 -12 -4 -19 -1 -8 3 -5 6
6 6 11 1 17 -2 13 -5z m-259 -43 c11 -7 11 -9 -1 -14 -9 -3 -18 1 -21 9 -6 16
2 18 22 5z m277 -41 c3 -5 1 -10 -4 -10 -6 0 -11 5 -11 10 0 6 2 10 4 10 3 0
8 -4 11 -10z m175 -10 c0 -5 -5 -10 -11 -10 -5 0 -7 5 -4 10 3 6 8 10 11 10 2
0 4 -4 4 -10z"/>
<path d="M1190 2089 c0 -5 5 -7 10 -4 6 3 10 8 10 11 0 2 -4 4 -10 4 -5 0 -10
-5 -10 -11z"/>
<path d="M2771 2054 c0 -11 3 -14 6 -6 3 7 2 16 -1 19 -3 4 -6 -2 -5 -13z"/>
<path d="M1185 2031 c-8 -27 -4 -33 12 -16 6 6 7 18 3 25 -6 9 -10 7 -15 -9z"/>
<path d="M2043 2039 c-11 -11 5 -59 20 -59 4 0 11 -10 16 -22 8 -22 9 -21 19
12 6 19 11 27 11 17 1 -13 7 -16 26 -11 21 5 24 3 19 -12 -3 -11 1 -8 10 6 14
24 13 26 -12 47 -37 30 -63 38 -73 22 -6 -10 -9 -11 -9 -1 0 15 -12 16 -27 1z"/>
<path d="M2386 1979 c3 -5 11 -9 19 -9 8 0 18 -7 23 -16 5 -9 16 -14 25 -13
27 6 4 29 -36 39 -22 4 -35 4 -31 -1z"/>
<path d="M2198 1962 c-10 -36 41 -83 87 -79 34 2 46 12 24 19 -9 3 -9 9 0 25
6 12 7 24 2 27 -5 3 -11 -3 -14 -13 -8 -31 -84 -12 -89 23 -3 20 -4 20 -10 -2z
m88 -55 c4 -4 -5 -7 -19 -7 -15 0 -27 4 -27 8 0 10 36 9 46 -1z"/>
<path d="M2110 1944 c0 -8 5 -12 10 -9 6 3 10 10 10 16 0 5 -4 9 -10 9 -5 0
-10 -7 -10 -16z"/>
<path d="M2250 1950 c0 -5 7 -10 15 -10 8 0 15 5 15 10 0 6 -7 10 -15 10 -8 0
-15 -4 -15 -10z"/>
<path d="M815 1940 c-3 -5 -1 -10 4 -10 6 0 11 5 11 10 0 6 -2 10 -4 10 -3 0
-8 -4 -11 -10z"/>
<path d="M1076 1931 c-14 -5 -16 -10 -8 -15 15 -9 52 2 52 15 0 11 -17 11 -44
0z"/>
<path d="M2064 1906 c10 -8 15 -19 11 -25 -3 -6 -1 -11 4 -11 20 0 11 29 -11
40 -22 10 -22 10 -4 -4z"/>
<path d="M2123 1908 c-19 -24 -20 -43 -5 -60 14 -16 13 -18 -1 -18 -10 0 -17
-7 -17 -15 0 -8 5 -15 10 -15 6 0 10 -7 10 -15 0 -18 -1 -18 38 -4 18 6 29 15
26 20 -3 5 2 6 10 3 9 -3 17 3 21 17 5 14 3 25 -4 27 -6 2 -11 8 -11 13 0 4 8
6 18 2 9 -3 1 9 -18 26 -37 33 -61 39 -77 19z"/>
<path d="M980 1900 c-12 -7 -12 -12 -2 -22 6 -6 12 -25 12 -40 0 -15 5 -28 10
-28 10 0 8 85 -1 95 -3 2 -11 0 -19 -5z"/>
<path d="M2365 1889 c-4 -6 -5 -12 -2 -15 7 -7 37 7 37 17 0 13 -27 11 -35 -2z"/>
<path d="M938 1863 c7 -3 16 -2 19 1 4 3 -2 6 -13 5 -11 0 -14 -3 -6 -6z"/>
<path d="M2280 1861 c-22 -4 -29 -9 -20 -12 21 -9 81 1 74 12 -3 5 -8 8 -12 8
-4 -1 -23 -4 -42 -8z"/>
<path d="M2641 1854 c0 -11 3 -14 6 -6 3 7 2 16 -1 19 -3 4 -6 -2 -5 -13z"/>
<path d="M965 1830 c-3 -5 -1 -10 4 -10 6 0 11 5 11 10 0 6 -2 10 -4 10 -3 0
-8 -4 -11 -10z"/>
<path d="M2568 1823 c7 -3 16 -2 19 1 4 3 -2 6 -13 5 -11 0 -14 -3 -6 -6z"/>
<path d="M2654 1742 c-6 -4 -11 -14 -12 -22 -2 -34 -9 -51 -33 -76 l-24 -27
55 6 c41 5 60 12 73 29 10 13 24 30 32 39 11 15 9 20 -13 38 -27 21 -58 27
-78 13z"/>
<path d="M883 1695 c0 -18 19 -15 25 3 2 7 -3 12 -10 12 -8 0 -15 -7 -15 -15z"/>
<path d="M963 1678 c38 -62 50 -78 54 -74 3 3 -8 22 -23 43 -36 50 -52 65 -31
31z"/>
<path d="M646 1636 c3 -9 10 -16 14 -16 4 0 7 -7 6 -16 0 -9 5 -19 12 -21 21
-8 7 39 -17 55 -19 13 -21 13 -15 -2z"/>
<path d="M910 1619 c0 -24 -4 -30 -15 -25 -8 3 -15 1 -15 -4 0 -6 12 -10 28
-10 38 0 55 -14 48 -38 -10 -30 10 -36 40 -13 27 22 60 29 49 11 -3 -5 -2 -10
4 -10 19 0 21 18 3 39 -12 14 -31 21 -61 23 -38 2 -46 6 -55 30 -14 37 -26 36
-26 -3z"/>
<path d="M735 1600 c-4 -6 6 -10 24 -10 16 0 33 5 36 10 4 6 -6 10 -24 10 -16
0 -33 -4 -36 -10z"/>
<path d="M2565 1473 c-26 -6 -75 -53 -75 -71 0 -13 17 -14 107 -9 58 3 111 11
117 17 7 7 4 10 -11 10 -11 0 -26 7 -33 15 -7 8 -19 15 -27 15 -8 0 -21 7 -29
15 -9 8 -18 14 -22 14 -4 -1 -16 -3 -27 -6z"/>
<path d="M967 1453 c-10 -9 -9 -23 2 -23 5 0 11 7 15 15 5 15 -5 20 -17 8z"/>
<path d="M780 1425 c-7 -8 -7 -21 -1 -36 10 -24 10 -24 10 -2 1 16 5 21 17 16
12 -4 15 -14 10 -41 l-5 -36 26 27 c23 22 25 29 16 50 -13 27 -57 41 -73 22z"/>
<path d="M701 1397 c-8 -10 -7 -19 4 -33 14 -19 14 -18 37 4 20 19 21 24 8 32
-21 13 -36 12 -49 -3z"/>
<path d="M955 1390 c-3 -5 -1 -10 4 -10 6 0 11 5 11 10 0 6 -2 10 -4 10 -3 0
-8 -4 -11 -10z"/>
<path d="M1305 1360 c-3 -5 -1 -10 4 -10 6 0 11 5 11 10 0 6 -2 10 -4 10 -3 0
-8 -4 -11 -10z"/>
<path d="M2300 1320 c0 -19 33 -40 61 -40 20 0 3 24 -29 42 -31 17 -32 17 -32
-2z"/>
<path d="M753 1280 c4 -16 2 -32 -3 -35 -14 -9 -12 -21 6 -39 18 -18 34 -13
34 11 0 9 7 25 17 35 15 17 15 19 -2 38 -10 11 -27 20 -38 20 -16 0 -19 -5
-14 -30z"/>
<path d="M1577 1283 c-2 -5 -1 -17 4 -28 8 -21 8 -21 14 7 3 19 -10 34 -18 21z"/>
<path d="M2725 1281 c-11 -5 -25 -6 -31 -4 -22 8 -24 -14 -4 -32 18 -16 20
-16 20 -2 0 10 6 17 14 17 7 0 19 7 26 15 14 16 6 18 -25 6z"/>
<path d="M995 1260 c3 -5 8 -10 11 -10 2 0 4 5 4 10 0 6 -5 10 -11 10 -5 0 -7
-4 -4 -10z"/>
<path d="M2583 1263 c-38 -3 -53 -8 -53 -19 0 -16 26 -19 35 -4 9 15 21 12 41
-7 13 -13 19 -14 22 -5 2 6 10 12 18 12 8 0 14 7 14 15 0 8 -6 14 -12 13 -7
-1 -37 -3 -65 -5z"/>
<path d="M2406 1244 c-9 -23 -8 -27 9 -21 8 4 17 2 21 -4 3 -6 10 -6 17 -1 7
5 24 12 40 16 15 3 27 11 27 16 0 15 -77 12 -83 -2 -4 -10 -6 -10 -6 0 -1 17
-18 15 -25 -4z"/>
<path d="M1641 1245 c0 -5 6 -21 14 -35 13 -24 14 -24 21 -5 8 19 9 19 16 -5
l7 -25 -2 25 c-1 16 -9 26 -22 29 -11 2 -23 8 -27 15 -4 6 -8 7 -7 1z"/>
<path d="M2699 1213 c-5 -31 -2 -53 6 -53 6 0 10 4 10 9 0 5 3 12 7 16 8 9 -1
35 -13 35 -5 0 -10 -3 -10 -7z"/>
<path d="M2323 1202 c-12 -4 -31 -20 -44 -35 -18 -24 -20 -31 -8 -38 8 -5 20
-9 27 -9 6 0 12 -6 13 -12 0 -7 4 -4 9 7 8 19 8 19 18 -5 6 -14 11 -19 11 -12
1 7 -4 22 -10 33 -8 15 -14 18 -23 9 -10 -8 -15 -6 -19 9 -6 22 7 46 20 38 6
-4 19 0 29 8 20 15 13 17 -23 7z"/>
<path d="M2387 1138 c-5 -72 4 -90 33 -63 12 11 20 13 20 6 0 -7 5 -9 10 -6 6
4 8 11 5 16 -4 5 1 9 9 9 9 0 16 7 16 16 0 8 -4 12 -10 9 -5 -3 -10 -2 -10 3
0 5 -9 12 -20 15 -14 3 -20 14 -20 31 0 15 -6 26 -14 26 -10 0 -15 -18 -19
-62z"/>
<path d="M2450 1190 c0 -5 5 -10 10 -10 6 0 10 5 10 10 0 6 -4 10 -10 10 -5 0
-10 -4 -10 -10z"/>
<path d="M2514 1176 c-3 -9 -4 -23 0 -31 3 -8 -2 -22 -11 -30 -20 -20 -11 -30
16 -16 16 9 19 18 14 49 -7 45 -11 50 -19 28z"/>
<path d="M2440 1160 c0 -5 5 -10 10 -10 6 0 10 5 10 10 0 6 -4 10 -10 10 -5 0
-10 -4 -10 -10z"/>
<path d="M1218 1043 c6 -2 18 -2 25 0 6 3 1 5 -13 5 -14 0 -19 -2 -12 -5z"/>
<path d="M2071 724 c0 -11 3 -14 6 -6 3 7 2 16 -1 19 -3 4 -6 -2 -5 -13z"/>
<path d="M2095 710 c3 -5 12 -7 20 -3 21 7 19 13 -6 13 -11 0 -18 -4 -14 -10z"/>
<path d="M1320 689 c0 -5 9 -9 20 -9 11 0 20 2 20 4 0 2 -9 6 -20 9 -11 3 -20
1 -20 -4z"/>
<path d="M1385 690 c-8 -13 8 -18 29 -10 19 6 19 7 -2 12 -12 4 -24 2 -27 -2z"/>
<path d="M1897 688 c-6 -4 15 -7 48 -7 64 1 65 5 2 11 -20 2 -43 0 -50 -4z"/>
<path d="M2010 688 c0 -10 184 -8 225 1 17 4 -27 7 -97 7 -71 -1 -128 -4 -128
-8z"/>
<path d="M2288 693 c7 -3 16 -2 19 1 4 3 -2 6 -13 5 -11 0 -14 -3 -6 -6z"/>
<path d="M1828 683 c12 -2 30 -2 40 0 9 3 -1 5 -23 4 -22 0 -30 -2 -17 -4z"/>
<path d="M1538 673 c23 -2 59 -2 80 0 20 2 1 4 -43 4 -44 0 -61 -2 -37 -4z"/>
</g>
</svg>
