<?xml version="1.0" standalone="no"?>
<!DOCTYPE svg PUBLIC "-//W3C//DTD SVG 20010904//EN"
 "http://www.w3.org/TR/2001/REC-SVG-20010904/DTD/svg10.dtd">
<svg version="1.0" xmlns="http://www.w3.org/2000/svg"
 width="1000.000000pt" height="1000.000000pt" viewBox="0 0 1000.000000 1000.000000"
 preserveAspectRatio="xMidYMid meet">

<g transform="translate(0.000000,1000.000000) scale(0.100000,-0.100000)"
fill="#000000" stroke="none">
<path d="M4848 8133 c7 -3 16 -2 19 1 4 3 -2 6 -13 5 -11 0 -14 -3 -6 -6z"/>
<path d="M1720 7320 c0 -5 7 -10 15 -10 8 0 15 5 15 10 0 6 -7 10 -15 10 -8 0
-15 -4 -15 -10z"/>
<path d="M6665 6940 c-11 -17 5 -29 35 -27 28 2 42 15 20 18 -20 3 -25 4 -37
12 -6 4 -14 3 -18 -3z"/>
<path d="M6105 6919 c-38 -10 -108 -28 -154 -39 -73 -18 -245 -90 -338 -141
-17 -10 -51 -21 -75 -24 -23 -4 -46 -9 -50 -11 -4 -3 -53 -6 -109 -9 l-102 -4
-46 -44 c-25 -25 -72 -62 -103 -84 -52 -36 -128 -119 -128 -141 0 -18 -116
-56 -125 -42 -3 5 0 12 6 16 15 9 69 124 69 147 0 26 -21 20 -60 -19 -19 -19
-41 -33 -50 -31 -8 1 -22 -5 -32 -16 -10 -11 -19 -14 -23 -8 -4 7 -15 5 -31
-5 -13 -9 -24 -12 -24 -7 0 5 -11 10 -25 11 -14 1 -25 -3 -25 -8 0 -5 -6 -7
-14 -4 -8 3 -25 -5 -37 -17 -16 -16 -21 -18 -16 -6 9 25 -16 21 -39 -5 -17
-19 -17 -21 -1 -15 9 4 17 5 17 2 0 -7 -61 -65 -68 -64 -19 3 -25 -2 -12 -11
11 -7 7 -10 -17 -10 -17 0 -35 -5 -39 -11 -3 -6 -18 -9 -31 -6 -16 3 -32 -2
-44 -14 -10 -10 -34 -21 -54 -25 -20 -3 -39 -13 -42 -20 -3 -8 -11 -14 -18
-14 -8 0 -30 -10 -50 -22 -31 -17 -38 -19 -46 -7 -5 9 -9 10 -9 2 0 -13 -37
-28 -57 -25 -7 2 -13 -2 -13 -8 0 -7 -8 -9 -19 -5 -10 3 -25 0 -33 -8 -7 -7
-19 -12 -26 -9 -7 2 -18 2 -25 -1 -7 -2 -16 -5 -20 -5 -5 0 -17 -10 -26 -21
-18 -20 -37 -29 -27 -13 3 5 -8 8 -24 7 -21 -1 -30 3 -30 13 0 13 -2 13 -17 1
-35 -27 -59 -35 -100 -33 -24 2 -45 -2 -49 -7 -3 -5 -9 -7 -14 -4 -10 6 -100
-36 -100 -47 0 -4 -6 -8 -12 -8 -7 0 -32 -20 -55 -44 -23 -24 -50 -43 -60 -42
-10 0 -18 -6 -18 -14 0 -15 -34 -35 -43 -25 -3 3 0 5 6 5 6 0 9 7 6 15 -4 8
-10 12 -15 9 -6 -3 -16 -1 -24 6 -11 9 -21 7 -44 -11 -17 -13 -31 -26 -31 -30
0 -12 35 -20 54 -13 9 3 16 2 16 -3 0 -5 -17 -15 -37 -22 -39 -14 -149 -83
-192 -120 l-23 -21 20 -34 c15 -24 21 -55 22 -108 3 -101 2 -110 -12 -102 -8
5 -9 0 -4 -17 15 -46 18 -79 8 -79 -17 0 -25 -81 -8 -94 18 -15 26 -63 12 -80
-6 -8 -25 -17 -43 -21 -36 -7 -48 5 -45 47 2 23 -4 31 -40 48 -49 24 -79 25
-133 4 -22 -9 -50 -17 -62 -17 -25 -2 -44 -17 -20 -17 9 0 19 -5 22 -10 4 -7
-13 -8 -52 -4 -46 5 -65 13 -90 37 -19 18 -33 41 -33 54 0 20 -5 23 -43 23
-23 0 -53 -7 -65 -16 -18 -12 -26 -13 -37 -4 -26 21 -140 -13 -172 -52 -8 -9
-42 -13 -121 -13 -61 0 -108 -3 -106 -6 2 -3 -15 -11 -36 -18 -22 -6 -40 -17
-40 -24 -1 -25 -28 -49 -48 -43 -15 5 -19 14 -17 34 4 38 -18 49 -102 51 l-74
2 -77 -80 c-65 -68 -76 -84 -68 -101 5 -12 19 -20 33 -20 22 0 35 11 91 74 9
10 37 27 60 38 l44 20 25 -24 c14 -12 31 -35 39 -51 l15 -27 40 21 c47 23 53
21 40 -12 -9 -23 -57 -67 -151 -139 -120 -91 -193 -158 -205 -187 -19 -44 -54
-60 -101 -45 -63 19 -161 -26 -188 -87 -18 -39 -18 -40 3 -67 16 -20 20 -35
16 -56 -10 -44 18 -47 63 -6 45 40 125 59 150 34 19 -19 0 -85 -33 -114 -14
-12 -25 -27 -25 -33 0 -20 -45 -5 -48 17 -2 15 -15 23 -48 32 -68 18 -89 15
-139 -23 -49 -38 -77 -40 -95 -5 -10 19 -69 93 -110 138 l-21 23 -19 -23 c-19
-23 -19 -23 -34 -3 l-15 20 -2 -20 c-1 -11 -1 -23 -1 -26 1 -4 -7 -5 -17 -2
-29 7 -38 -33 -14 -60 11 -12 26 -37 33 -54 7 -18 18 -33 26 -33 14 0 34 -58
34 -98 0 -13 -7 -36 -15 -53 -17 -33 -12 -51 13 -47 10 2 21 -7 27 -20 5 -12
16 -20 23 -17 16 6 132 -51 132 -65 0 -10 -40 -50 -51 -50 -11 0 -31 29 -26
38 3 4 -4 14 -16 22 -19 11 -21 11 -12 -1 6 -8 2 -7 -7 4 -9 10 -15 24 -12 30
2 7 -3 13 -13 13 -10 1 -27 5 -38 9 -20 8 -20 8 -1 -13 17 -19 17 -22 3 -28
-9 -3 -30 0 -46 7 -24 11 -28 16 -18 28 10 12 9 13 -10 3 -12 -7 -27 -28 -33
-47 -13 -40 -33 -42 -38 -4 -2 16 6 35 23 53 44 47 32 70 -42 74 -50 4 -53 2
-59 -24 -5 -19 -2 -30 10 -39 20 -15 20 -25 0 -39 -8 -6 -16 -26 -16 -43 -1
-28 -5 -32 -32 -35 l-30 -3 29 -19 c16 -11 35 -19 41 -19 12 0 7 -34 -7 -43
-5 -3 -9 -14 -9 -25 0 -12 -4 -17 -11 -14 -6 4 -8 10 -5 13 9 8 -25 42 -41 42
-7 0 -13 7 -13 15 0 8 -4 15 -9 15 -5 0 -17 3 -26 7 -14 5 -16 3 -7 -13 6 -12
6 -28 1 -43 -8 -19 -14 -22 -37 -17 -57 14 -57 14 -53 -29 3 -48 2 -46 38 -49
65 -6 93 -18 108 -49 18 -37 18 -37 0 -37 -34 0 -93 -40 -103 -69 -10 -28 -56
-61 -84 -61 -7 1 -28 14 -47 30 -34 29 -35 29 -127 23 -77 -5 -97 -3 -118 11
-32 20 -52 20 -60 0 -10 -26 -7 -33 20 -50 41 -27 216 -56 256 -42 59 21 102
-47 73 -115 -26 -62 -20 -73 21 -42 19 15 37 25 39 23 2 -2 1 -22 -2 -46 -5
-36 -7 -40 -18 -26 -7 10 -17 14 -24 10 -8 -5 -4 -14 14 -28 19 -15 35 -19 60
-15 50 8 70 -18 57 -75 -5 -23 -10 -35 -11 -25 -1 19 -18 22 -41 7 -12 -8 -11
-13 8 -33 28 -30 28 -52 0 -71 -40 -29 -80 -11 -57 25 19 31 10 39 -46 39 -52
0 -55 -1 -55 -25 0 -16 4 -23 14 -19 20 8 28 -24 9 -35 -15 -8 -15 -11 -3 -26
16 -19 36 -53 45 -75 4 -8 11 -23 16 -33 7 -13 7 -23 -1 -32 -8 -10 -6 -15 9
-20 11 -3 29 -21 40 -40 25 -43 41 -45 41 -6 0 19 8 34 23 44 12 8 39 31 59
51 36 36 69 45 97 27 9 -6 22 0 40 19 14 16 38 31 53 34 25 6 28 3 28 -18 0
-13 -7 -29 -15 -36 -26 -22 -5 -32 51 -25 32 4 61 2 73 -5 28 -15 71 -91 71
-126 0 -17 4 -34 9 -39 5 -6 14 -30 19 -55 l9 -45 8 43 c13 73 29 32 31 -81 1
-56 4 -111 6 -122 2 -15 -5 -22 -30 -30 -31 -11 -32 -12 -15 -26 10 -9 44 -28
76 -43 69 -33 90 -60 81 -104 -4 -18 -10 -32 -15 -32 -5 0 -9 -8 -9 -19 0 -10
-7 -24 -15 -31 -22 -18 -18 -39 7 -49 30 -12 61 -46 87 -98 39 -79 76 -88 183
-47 65 26 68 26 93 10 15 -10 41 -38 58 -64 53 -77 79 -100 157 -140 41 -21
100 -53 130 -70 30 -17 105 -44 165 -60 61 -17 148 -41 195 -55 80 -24 126
-30 211 -28 21 1 58 15 94 37 65 39 101 40 146 6 13 -10 53 -31 89 -47 57 -26
81 -30 195 -36 118 -6 213 -14 610 -50 249 -23 1400 -6 1720 26 83 8 206 19
275 25 120 11 247 26 395 49 39 5 165 20 280 31 116 12 260 31 320 44 61 13
144 29 185 35 194 31 762 163 868 202 120 44 190 91 358 244 59 54 90 92 117
142 56 108 117 162 198 177 23 4 43 17 58 36 20 27 93 68 204 114 55 22 61 47
41 175 -29 193 -19 279 46 361 17 22 18 31 9 70 -14 61 -27 72 -35 30 -6 -29
-9 -31 -19 -16 -11 14 -14 15 -25 1 -7 -8 -25 -15 -40 -15 -29 0 -49 -20 -118
-113 -29 -40 -37 -45 -84 -50 -61 -8 -70 -3 -62 30 4 16 2 28 -6 33 -15 9 -5
30 16 30 21 0 17 17 -13 49 -40 42 -74 47 -107 16 -15 -14 -32 -25 -38 -25 -6
0 -26 -14 -46 -31 -28 -25 -41 -30 -66 -25 -45 9 -49 18 -21 56 14 19 23 40
20 48 -2 7 -1 10 5 7 15 -9 32 35 26 69 -5 25 -2 37 14 51 11 10 20 13 20 7 0
-7 5 -12 10 -12 14 0 13 27 -1 32 -9 3 -9 9 -1 23 6 11 13 31 16 45 3 14 19
41 35 60 24 29 31 32 44 22 9 -7 18 -32 22 -55 11 -68 14 -75 45 -82 15 -3 83
-36 149 -72 102 -55 121 -68 116 -84 -7 -22 3 -24 42 -7 45 20 71 53 66 82 -3
14 2 46 11 72 9 26 16 48 16 49 0 0 -16 -1 -35 -3 -20 -2 -48 1 -64 8 -26 10
-29 16 -27 53 1 39 3 42 29 42 15 -1 27 0 27 0 0 0 -9 18 -20 40 -41 80 -26
121 64 175 21 13 58 40 83 62 68 58 93 51 157 -49 17 -24 40 -46 59 -53 18 -6
49 -20 69 -31 48 -25 119 -25 141 -1 21 23 23 148 5 217 -10 39 -10 50 3 73
18 33 75 72 105 72 33 0 39 18 14 44 -22 24 -79 175 -80 212 0 34 48 88 103
114 48 23 53 29 61 70 10 54 11 151 1 241 -5 45 -3 74 5 88 9 19 9 26 -5 41
-9 9 -18 33 -22 53 -3 19 -15 66 -27 103 -19 58 -26 69 -51 75 -36 10 -83 -12
-180 -86 l-74 -57 -103 6 c-108 6 -200 17 -308 36 -66 12 -158 8 -201 -8 -107
-41 -130 -38 -159 18 -25 50 -25 81 0 113 11 14 20 32 20 40 0 8 15 34 34 58
l35 43 -1 120 c0 67 -4 208 -9 315 -11 209 -17 234 -69 271 -37 26 -243 130
-259 130 -6 0 -19 4 -29 10 -25 14 -170 61 -219 71 -24 5 -64 14 -90 20 -59
13 -154 28 -213 35 -25 2 -85 9 -135 14 -49 6 -128 10 -175 11 -47 0 -150 7
-230 14 -80 8 -163 16 -185 18 -22 2 -2 4 45 5 l86 2 32 53 c17 28 39 73 48
98 15 39 24 49 54 59 21 7 47 9 59 5 14 -4 21 -2 21 7 -1 20 -28 52 -47 54
-47 7 -65 17 -75 42 -6 17 -12 22 -15 14 -3 -8 0 -24 7 -37 12 -23 8 -55 -7
-55 -4 1 -17 15 -28 32 -11 17 -33 36 -50 41 -16 6 -46 21 -65 34 -19 12 -45
23 -58 23 -28 0 -131 24 -218 51 -33 11 -69 19 -80 19 -10 0 -34 9 -52 20 -84
51 -311 66 -447 29z m-1173 -391 c-7 -7 -12 -8 -12 -2 0 14 12 26 19 19 2 -3
-1 -11 -7 -17z m-22 -28 c0 -5 -2 -10 -4 -10 -3 0 -8 5 -11 10 -3 6 -1 10 4
10 6 0 11 -4 11 -10z m1794 -59 c8 -13 -19 -21 -72 -22 -39 0 -43 -2 -24 -9
19 -8 21 -15 17 -41 -3 -18 -9 -37 -12 -42 -3 -6 -1 -7 5 -3 11 6 8 -76 -3
-94 -5 -9 -6 -143 -1 -220 3 -51 -9 -87 -33 -94 -15 -5 -242 -19 -288 -18 -26
0 -53 24 -53 47 0 28 72 235 81 235 5 0 9 5 9 12 0 6 6 19 13 27 8 9 21 37 31
64 10 26 22 47 27 47 5 0 9 11 9 24 0 18 9 27 40 40 22 9 57 19 79 22 28 4 38
10 34 20 -4 11 9 14 65 14 39 0 73 -4 76 -9z m126 -11 c0 -5 -7 -10 -15 -10
-8 0 -15 5 -15 10 0 6 7 10 15 10 8 0 15 -4 15 -10z m-846 -168 c15 -46 -60
-143 -121 -156 -15 -4 -37 -20 -48 -36 -11 -17 -29 -30 -40 -31 -11 0 -33 -2
-49 -4 -16 -2 -35 2 -43 11 -8 8 -19 12 -24 9 -13 -9 -11 9 4 25 10 12 9 12
-6 1 -21 -16 -32 -9 -23 15 3 9 12 14 21 10 8 -3 14 -1 12 5 -1 6 47 37 108
69 60 33 111 64 113 69 2 6 20 8 43 5 33 -5 38 -3 33 10 -3 9 -1 16 4 16 6 0
13 -8 16 -18z m-1493 -261 c-11 -7 -7 -13 17 -25 17 -9 34 -20 37 -26 5 -8
-50 19 -74 36 -7 5 11 24 22 24 8 0 7 -3 -2 -9z m94 -146 c-7 -54 7 -105 28
-105 7 0 20 -13 30 -29 22 -38 22 -53 0 -21 -10 14 -30 36 -45 48 -16 13 -28
30 -28 38 0 20 -32 34 -53 23 -14 -8 -17 -6 -17 11 0 11 5 20 11 20 6 0 8 8 5
18 -3 10 5 30 22 50 25 31 28 32 40 15 9 -12 11 -34 7 -68z m-98 -22 c-7 -7
-30 -14 -51 -15 -27 -1 -40 -6 -43 -19 -3 -11 -11 -15 -24 -12 -10 3 -17 9
-14 13 3 4 -3 11 -13 15 -15 6 -14 8 6 16 13 5 21 13 18 18 -3 5 4 12 17 15
21 7 21 7 2 16 -18 8 -18 9 5 10 14 1 41 7 60 14 l35 13 8 -35 c5 -25 4 -40
-6 -49z m2076 14 c2 -7 -8 -26 -24 -41 -16 -16 -29 -33 -29 -37 0 -3 -10 -9
-21 -12 -17 -5 -20 -11 -16 -28 4 -13 2 -28 -3 -34 -6 -7 -11 -24 -12 -38 -1
-14 -7 -23 -12 -20 -6 4 -6 -1 -2 -13 6 -15 5 -17 -5 -6 -10 9 -10 15 -1 24
17 17 15 31 -3 24 -9 -3 -15 0 -15 9 0 10 -21 0 -64 -30 -36 -25 -68 -45 -72
-45 -22 0 -121 -59 -150 -88 -30 -31 -32 -36 -18 -46 14 -10 12 -13 -9 -25
-15 -8 -23 -19 -20 -30 2 -9 0 -27 -6 -41 -8 -20 -10 -21 -10 -6 -1 16 -6 18
-43 13 -24 -4 -61 -9 -83 -12 l-40 -5 36 13 c35 11 36 13 22 34 -14 21 -12 24
49 70 35 26 94 78 132 115 56 54 76 68 100 68 22 0 50 14 91 45 33 25 64 45
69 45 4 0 6 7 2 15 -3 9 0 15 9 15 9 0 23 16 32 35 9 19 23 36 32 38 35 10 79
6 84 -6z m47 4 c0 -23 -14 -41 -32 -41 -18 0 -18 1 -1 25 18 25 33 32 33 16z
m-2566 -36 c8 -8 21 -12 29 -9 14 5 30 -10 33 -31 0 -5 2 -16 2 -23 1 -8 14
-12 35 -11 67 5 96 -1 107 -21 8 -16 4 -26 -21 -55 -56 -63 -142 -92 -217 -73
-69 17 -57 25 39 27 50 1 101 6 113 11 28 10 66 56 66 79 -1 14 -2 13 -11 -2
-9 -15 -13 -16 -25 -6 -8 7 -43 13 -78 15 -85 3 -102 15 -101 70 0 47 5 52 29
29z m2306 -39 c0 -2 -9 -6 -20 -9 -11 -3 -20 -1 -20 4 0 5 9 9 20 9 11 0 20
-2 20 -4z m304 -12 c5 -14 4 -15 -9 -4 -17 14 -19 20 -6 20 5 0 12 -7 15 -16z
m-2214 -14 c0 -5 -7 -10 -15 -10 -8 0 -15 5 -15 10 0 6 7 10 15 10 8 0 15 -4
15 -10z m689 -82 c-7 -29 -12 -62 -11 -73 7 -73 10 -93 17 -105 6 -10 1 -12
-23 -7 -26 5 -34 2 -43 -14 -13 -26 -5 -35 44 -43 26 -5 37 -3 37 5 0 7 11 2
24 -10 47 -44 36 -135 -20 -163 -23 -11 -53 -53 -67 -93 -3 -5 -7 -7 -11 -4
-4 4 -1 28 5 55 9 36 10 49 1 52 -7 2 -10 7 -8 11 3 4 -12 6 -32 5 -20 -2 -27
0 -15 2 19 5 21 9 13 30 -9 22 -6 28 13 25 17 -3 10 48 -10 71 -8 9 -12 22 -8
27 3 6 -6 23 -22 37 -31 29 -41 18 -20 -24 12 -26 12 -30 -2 -41 -12 -9 -13
-13 -3 -17 14 -7 16 -24 3 -24 -5 0 -21 4 -35 10 -23 8 -25 12 -16 36 8 20 7
25 -2 21 -7 -2 -12 -12 -12 -21 2 -12 -5 -15 -25 -12 -14 2 -32 5 -39 5 -7 1
-11 5 -8 9 7 12 -6 28 -41 46 -23 11 -31 21 -27 34 4 10 2 13 -3 7 -9 -12 -74
-14 -66 -2 2 4 -3 7 -11 7 -17 0 -56 46 -56 67 0 7 10 17 23 22 30 12 66 51
45 51 -8 0 -23 7 -34 15 -19 14 -19 14 2 15 12 0 33 -12 48 -26 22 -22 36 -27
93 -30 108 -5 115 -5 140 11 27 18 29 13 6 -21 -14 -23 -15 -27 -1 -41 13 -13
22 -13 50 -4 28 9 42 25 71 78 20 36 37 70 37 76 0 6 3 8 6 4 3 -3 0 -30 -7
-59z m469 55 c-21 -2 -55 -2 -75 0 -21 2 -4 4 37 4 41 0 58 -2 38 -4z m1205
-31 c88 44 145 46 164 8 7 -14 13 -36 13 -49 0 -13 9 -39 21 -57 20 -33 21
-33 49 -19 32 16 40 33 40 80 0 27 6 37 33 53 41 25 107 20 107 -9 0 -12 13
-24 37 -34 20 -8 34 -18 30 -21 -3 -3 -14 -1 -25 5 -12 6 -25 11 -31 11 -17 0
-13 -28 7 -39 16 -10 16 -12 -2 -25 -10 -8 -15 -20 -11 -26 7 -12 -42 -90 -57
-90 -5 0 -7 -8 -4 -18 4 -10 0 -32 -8 -48 -8 -16 -13 -50 -12 -77 2 -55 -4
-63 -84 -104 -30 -16 -67 -36 -82 -46 -15 -10 -37 -17 -50 -15 -22 4 -22 5 -3
13 23 10 38 22 68 51 12 12 33 25 46 29 21 6 22 9 8 17 -20 11 -20 78 1 71 6
-3 12 0 12 6 0 7 16 19 36 27 20 8 33 18 30 21 -3 3 -1 12 5 19 7 8 6 14 -2
20 -8 4 -9 3 -5 -4 10 -17 -3 -14 -49 11 l-40 22 -28 -32 c-22 -25 -26 -37
-21 -59 6 -24 -1 -34 -64 -93 -79 -74 -143 -111 -192 -111 -28 0 -31 2 -20 15
7 8 16 13 20 10 14 -8 70 135 84 212 6 38 -11 52 -61 48 -18 -2 -33 1 -33 6 0
5 -7 9 -15 9 -11 0 -14 8 -10 29 l5 28 -69 7 c-54 6 -75 12 -96 32 -20 18 -31
22 -38 15 -15 -15 -30 -14 -20 2 4 6 8 17 8 22 0 6 38 29 85 51 46 23 86 47
88 53 2 7 22 2 54 -16 47 -26 51 -26 81 -11z m-2266 -103 c15 -32 30 -59 33
-59 3 0 19 19 35 41 22 30 31 36 33 24 2 -9 -4 -25 -13 -35 -9 -10 -19 -33
-21 -52 -3 -18 -7 -43 -9 -54 -3 -12 1 -34 9 -48 8 -16 12 -49 10 -87 -2 -33
0 -59 4 -57 44 23 107 50 123 53 11 2 29 7 39 10 25 8 34 -10 15 -28 -8 -9
-15 -20 -15 -26 0 -6 -3 -11 -7 -10 -22 3 -53 -15 -53 -31 0 -20 -19 -30 -56
-30 -13 0 -24 -4 -24 -10 0 -5 7 -10 15 -10 8 0 15 -4 15 -9 0 -5 -10 -7 -22
-5 -13 2 -17 2 -11 -2 10 -4 9 -9 -3 -21 -14 -15 -20 -15 -66 0 -27 9 -57 13
-66 10 -13 -4 -14 -3 -4 5 10 7 5 14 -23 31 -42 25 -52 27 -35 7 10 -13 7 -13
-19 -3 -32 12 -44 32 -13 23 9 -3 23 -2 31 3 10 6 4 15 -23 36 -20 15 -36 32
-36 37 0 5 -11 26 -25 46 -14 20 -25 30 -25 21 0 -8 5 -20 12 -27 7 -7 9 -12
5 -12 -4 0 -16 9 -26 19 -17 17 -24 18 -50 8 -23 -8 -33 -8 -46 3 -12 10 -13
15 -3 21 9 6 8 10 -6 15 -14 5 -15 9 -4 16 9 6 6 8 -11 6 -18 -2 -25 2 -27 20
-2 13 0 21 4 18 5 -3 15 6 23 20 11 22 11 27 -1 34 -36 23 -54 10 -53 -38 1
-7 -13 1 -30 18 -26 25 -29 34 -21 48 9 14 29 18 101 20 78 2 96 0 145 -23
l56 -25 -1 -90 c-1 -89 -1 -90 33 -125 31 -32 39 -35 89 -35 77 0 88 10 45 39
-19 13 -34 31 -35 40 -1 9 -5 6 -10 -9 -6 -18 -7 -12 -2 20 3 24 12 49 19 55
8 5 15 28 15 50 1 41 -20 146 -32 155 -3 3 -11 15 -18 28 -6 12 -18 22 -26 22
-7 0 -16 4 -20 10 -3 5 6 5 24 -1 22 -8 36 -25 58 -70z m775 32 c9 -19 22 -37
28 -41 7 -5 8 -15 1 -33 -6 -15 -7 -26 -3 -26 4 1 9 0 12 -1 20 -7 40 -7 40 2
0 6 8 8 18 6 10 -3 36 5 58 18 77 46 129 57 199 40 11 -2 24 -5 28 -5 5 -1 6
-5 2 -11 -3 -5 -12 -7 -20 -3 -24 8 -17 -3 11 -22 15 -9 23 -12 19 -5 -5 8 -3
11 6 8 8 -3 13 -11 12 -17 -2 -6 2 -10 9 -9 7 2 16 -15 21 -37 5 -22 13 -49
18 -60 5 -11 7 -30 5 -43 -3 -13 -1 -20 5 -17 5 4 9 1 9 -4 0 -6 8 -11 18 -11
14 0 15 2 2 10 -13 8 -13 10 2 10 9 0 20 -5 23 -10 3 -6 18 -7 33 -4 21 4 24
3 12 -5 -8 -6 -42 -10 -75 -10 -75 1 -174 -11 -180 -21 -3 -5 3 -11 14 -15 11
-3 31 -15 45 -26 22 -18 26 -28 26 -75 0 -30 2 -54 5 -54 14 0 64 44 59 52
-13 21 7 56 37 67 53 18 66 15 42 -11 -24 -26 -47 -72 -56 -108 -4 -14 -26
-47 -50 -74 l-43 -50 -51 17 c-29 9 -66 17 -83 17 -36 0 -128 28 -136 41 -3 5
-21 9 -40 9 -19 0 -34 4 -34 8 0 30 34 113 50 122 25 13 60 13 60 -1 0 -6 7
-9 15 -6 8 4 17 2 20 -3 4 -6 14 -6 26 0 11 6 17 15 14 20 -3 5 -1 19 5 30 6
11 7 20 1 20 -5 0 -11 -7 -15 -15 -3 -8 -10 -15 -16 -15 -6 0 -8 5 -5 10 3 6
1 10 -4 10 -17 0 -13 28 7 40 14 9 13 10 -8 4 -14 -4 -43 -8 -65 -8 -24 -1
-52 -9 -69 -22 -28 -20 -29 -26 -37 -120 -4 -54 -3 -106 1 -114 4 -8 12 -32
18 -53 10 -37 10 -38 -28 -57 -47 -24 -117 -26 -168 -5 -34 15 -38 15 -49 -1
-7 -10 -13 -22 -13 -28 0 -5 -3 -7 -6 -3 -12 12 36 75 62 81 17 5 24 12 20 21
-3 8 -1 15 5 15 6 0 3 7 -6 16 -9 9 -14 21 -12 28 2 6 -3 16 -12 22 -13 10
-13 14 -2 28 7 9 9 16 4 16 -8 0 -33 42 -33 55 0 3 9 5 19 5 35 0 113 39 105
52 -6 9 -3 9 9 -1 19 -15 24 -2 6 16 -7 7 -1 14 22 22 22 7 35 8 39 1 4 -6 13
-5 25 4 18 13 18 15 -12 33 l-31 18 34 25 c33 25 47 54 20 44 -7 -3 -23 7 -34
21 -12 14 -27 25 -34 24 -24 -3 -51 1 -45 7 3 3 -3 14 -13 24 -15 15 -19 34
-19 88 l0 68 42 -1 c37 -1 44 -5 59 -34z m-920 -23 c-9 -9 -12 -7 -12 12 0 19
3 21 12 12 9 -9 9 -15 0 -24z m-420 -102 c-1 -21 -8 -46 -16 -55 -26 -28 -19
-48 7 -23 44 41 64 23 24 -20 -13 -14 -24 -32 -24 -39 0 -8 -2 -18 -3 -24 -6
-23 1 -66 9 -61 12 8 51 -59 51 -86 0 -11 9 -33 21 -49 11 -16 16 -29 11 -29
-6 0 -7 -14 -2 -36 5 -19 6 -33 3 -30 -8 8 -35 -32 -29 -42 2 -4 -7 -8 -21 -7
-32 0 -50 -37 -28 -59 19 -19 19 -60 0 -76 -13 -11 -15 -8 -15 14 0 15 -5 36
-11 47 -8 16 -6 29 9 60 l19 39 -33 0 c-18 0 -35 4 -39 10 -3 5 -12 7 -20 3
-11 -4 -15 2 -15 20 0 25 -15 37 -37 30 -7 -2 -9 -11 -6 -19 3 -9 -2 -14 -15
-14 -11 0 -28 -8 -38 -17 -21 -22 -66 -53 -76 -53 -12 0 -9 33 5 50 7 9 33 32
59 53 37 30 51 37 72 31 22 -5 26 -3 27 17 1 21 2 20 9 -6 4 -16 8 -22 9 -13
0 9 5 19 10 22 5 3 8 -15 6 -42 l-4 -47 13 50 c7 28 9 54 5 59 -13 14 -11 130
3 163 6 15 13 69 14 119 2 50 9 103 15 118 l13 28 9 -24 c5 -13 9 -40 9 -62z
m-778 59 c-7 -17 -20 -20 -28 -6 -7 10 3 21 20 21 8 0 11 -6 8 -15z m1231 -21
c9 -15 12 -23 6 -20 -21 13 -11 -5 17 -30 l27 -26 -29 21 c-37 27 -59 58 -51
71 9 14 11 13 30 -16z m-325 -64 c0 -5 -2 -10 -4 -10 -3 0 -8 5 -11 10 -3 6
-1 10 4 10 6 0 11 -4 11 -10z m2587 4 c-3 -3 -12 -4 -19 -1 -8 3 -5 6 6 6 11
1 17 -2 13 -5z m-3413 -39 c-4 -15 -2 -25 5 -25 19 0 12 -18 -9 -25 -27 -9
-25 -24 3 -19 l22 5 -22 -12 c-13 -7 -23 -17 -23 -24 0 -7 -10 -20 -22 -31
-23 -19 -23 -19 -5 2 20 24 23 41 4 25 -11 -9 -14 -2 -13 34 0 25 4 45 9 45 5
0 4 6 -2 14 -9 11 -6 13 15 10 15 -1 27 3 31 12 9 23 14 16 7 -11z m1229 8
c-7 -2 -19 -2 -25 0 -7 3 -2 5 12 5 14 0 19 -2 13 -5z m2184 1 c-3 -3 -12 -4
-19 -1 -8 3 -5 6 6 6 11 1 17 -2 13 -5z m-548 -50 c17 -38 7 -40 -19 -5 -16
23 -18 31 -7 31 7 0 19 -12 26 -26z m481 22 c0 -2 -7 -7 -16 -10 -8 -3 -12 -2
-9 4 6 10 25 14 25 6z m-1660 -55 c0 -6 -4 -13 -10 -16 -5 -3 -10 1 -10 9 0 9
5 16 10 16 6 0 10 -4 10 -9z m2933 -62 c-33 -34 -71 -78 -84 -99 -18 -29 -36
-42 -77 -55 -28 -10 -55 -15 -58 -12 -9 9 15 37 32 37 8 0 14 5 14 10 0 7 -7
7 -21 0 -29 -16 -36 -4 -13 21 13 15 28 20 51 17 22 -3 30 -1 23 6 -17 17 -11
35 15 42 14 3 23 10 20 15 -7 10 28 29 54 29 12 0 20 5 19 10 -3 10 73 51 81
44 2 -2 -23 -31 -56 -65z m-2879 35 c21 -21 20 -34 -3 -34 -13 0 -18 7 -18 25
0 29 1 30 21 9z m2331 -3 c-18 -7 -55 -4 -55 5 0 2 17 4 38 3 28 0 32 -2 17
-8z m-3507 -42 c-3 -8 -7 -3 -11 10 -4 17 -3 21 5 13 5 -5 8 -16 6 -23z m-548
-24 c-7 -8 -18 -15 -24 -15 -6 0 -2 7 8 15 25 19 32 19 16 0z m557 -42 c-3
-10 -5 -2 -5 17 0 19 2 27 5 18 2 -10 2 -26 0 -35z m3770 -3 c18 -16 20 -25
12 -57 -13 -56 -11 -86 4 -77 6 5 -7 -14 -30 -40 -24 -27 -43 -54 -43 -61 0
-19 -27 -38 -35 -25 -9 15 -72 12 -104 -5 -20 -10 -48 -13 -89 -10 l-61 4 -53
-50 c-29 -27 -63 -52 -75 -55 -13 -3 -20 -10 -17 -15 3 -5 -1 -11 -8 -13 -7
-2 -22 -7 -33 -12 -11 -4 -22 -8 -25 -8 -3 -1 -11 -5 -19 -10 -10 -6 -12 -5
-7 2 5 8 -1 12 -14 12 -15 0 -20 -5 -17 -15 4 -8 2 -17 -3 -20 -6 -4 -6 -14 1
-28 12 -21 12 -21 28 -1 16 19 51 29 51 14 0 -5 -9 -12 -20 -15 -11 -3 -20
-11 -20 -16 0 -12 -37 -12 -45 1 -3 6 -11 10 -17 10 -6 0 -5 -6 3 -16 11 -14
10 -15 -7 -12 -13 2 -18 -2 -16 -13 1 -9 -4 -19 -13 -23 -8 -3 -15 -11 -15
-17 0 -8 4 -8 15 1 8 7 15 8 15 2 0 -5 -6 -15 -14 -21 -17 -14 -30 12 -20 42
4 14 3 17 -7 12 -7 -5 -6 1 4 15 13 19 14 25 2 37 -15 15 -10 73 7 84 6 3 8 8
6 10 -1 3 7 18 20 34 l23 30 -5 -37 c-5 -43 0 -49 14 -14 10 28 70 74 70 55 0
-10 3 -10 12 -1 17 17 26 15 31 -5 4 -14 5 -12 6 5 1 13 7 22 17 22 8 0 12 -4
9 -10 -3 -6 1 -7 9 -4 9 3 13 10 10 15 -3 5 5 9 18 10 18 0 19 2 7 7 -14 6
-11 12 17 39 19 18 34 28 34 23 0 -23 18 -8 23 19 5 23 13 30 44 36 23 5 31
10 21 12 -10 3 -18 9 -18 14 0 5 -5 9 -12 9 -22 0 -78 51 -78 72 0 18 4 20 35
15 22 -4 34 -2 32 5 -1 6 16 13 38 16 22 2 43 8 46 14 3 5 25 -2 52 -17 l47
-26 50 22 c27 12 55 27 61 35 15 18 21 18 46 -6z m-2820 4 c-3 -3 -12 -4 -19
-1 -8 3 -5 6 6 6 11 1 17 -2 13 -5z m1273 0 c0 -9 -28 -34 -38 -34 -6 0 -28
-20 -49 -45 -38 -45 -82 -60 -99 -34 -8 14 51 75 96 99 33 18 90 27 90 14z
m350 -19 c8 -10 1 -16 -32 -28 -24 -8 -51 -18 -60 -22 -14 -5 -18 -2 -18 14 0
17 -4 20 -17 13 -13 -6 -23 -3 -36 10 -17 18 -17 19 2 26 31 11 149 2 161 -13z
m-3470 -5 c0 -5 -5 -10 -11 -10 -5 0 -7 5 -4 10 3 6 8 10 11 10 2 0 4 -4 4
-10z m-40 -26 c0 -2 -9 0 -20 6 -11 6 -20 13 -20 16 0 2 9 0 20 -6 11 -6 20
-13 20 -16z m170 4 c9 -3 10 -7 3 -11 -6 -4 -19 3 -29 16 -11 12 -12 17 -4 11
8 -6 22 -13 30 -16z m777 -10 c-3 -7 -5 -2 -5 12 0 14 2 19 5 13 2 -7 2 -19 0
-25z m3020 -4 c-3 -3 -12 -4 -19 -1 -8 3 -5 6 6 6 11 1 17 -2 13 -5z m-1816
-57 c-8 -8 -11 -7 -11 4 0 20 13 34 18 19 3 -7 -1 -17 -7 -23z m825 -16 c40
-11 54 -25 54 -58 0 -11 -4 -13 -12 -6 -7 6 -31 14 -52 17 -29 6 -36 10 -25
17 12 7 11 9 -2 9 -9 0 -19 8 -23 18 -3 9 -9 24 -12 32 -6 12 -3 12 12 -2 10
-9 38 -21 60 -27z m-2871 19 c-3 -5 -12 -10 -18 -10 -7 0 -6 4 3 10 19 12 23
12 15 0z m638 -30 c-12 -5 -32 -23 -44 -39 -13 -17 -27 -31 -33 -31 -5 0 8 18
29 40 21 22 46 40 55 39 9 0 7 -3 -7 -9z m5567 -10 c0 -5 -9 -10 -21 -10 -11
0 -17 5 -14 10 3 6 13 10 21 10 8 0 14 -4 14 -10z m-6290 -5 c0 -2 -10 -9 -22
-15 -22 -11 -22 -10 -4 4 21 17 26 19 26 11z m-80 -49 c0 -2 -7 -7 -16 -10 -8
-3 -12 -2 -9 4 6 10 25 14 25 6z m991 -123 c33 -32 67 -58 74 -59 7 -1 23 -5
35 -9 17 -5 21 -4 15 5 -5 9 -4 11 4 6 6 -4 9 -12 6 -17 -4 -5 1 -9 9 -9 9 0
16 5 16 12 0 6 15 24 33 40 28 26 37 29 74 23 25 -4 51 -1 64 5 15 8 19 9 15
1 -4 -6 -2 -11 3 -11 6 0 11 8 11 19 0 33 25 45 62 30 18 -8 36 -13 41 -11 4
1 6 -3 5 -10 -2 -7 3 -12 10 -13 7 0 17 -7 22 -15 5 -8 32 -22 61 -30 41 -12
55 -22 70 -49 10 -19 22 -37 26 -40 42 -30 80 -111 53 -111 -5 0 -10 11 -10
25 0 18 -7 26 -25 31 -13 3 -29 12 -36 20 -14 16 -49 19 -49 3 0 -18 -59 1
-85 27 -26 26 -33 40 -13 28 7 -5 8 -3 4 5 -5 7 -10 10 -13 7 -3 -3 -12 1 -20
9 -32 33 -100 8 -109 -39 -4 -23 -16 -37 -44 -54 -67 -38 -104 -24 -143 54
-16 31 -57 53 -57 31 -1 -7 -8 -3 -18 9 -14 16 -23 19 -47 12 -39 -10 -62 -2
-81 27 l-16 24 -25 -25 c-14 -14 -32 -23 -40 -20 -8 3 -21 6 -29 6 -21 0 -17
16 11 44 15 15 25 37 25 54 0 56 18 51 111 -35z m1909 67 c0 -5 -12 -10 -26
-10 -14 0 -23 4 -19 10 3 6 15 10 26 10 10 0 19 -4 19 -10z m274 -15 c9 -9 16
-20 16 -25 0 -4 8 -7 18 -6 9 0 16 -4 15 -11 -2 -6 5 -29 14 -50 14 -34 17
-36 24 -18 l8 20 1 -20 1 -20 9 20 c5 11 9 14 9 8 1 -7 8 -13 16 -13 8 0 15
-4 15 -9 0 -5 11 -11 25 -13 17 -4 25 -1 25 9 0 8 5 11 10 8 6 -4 8 -11 5 -16
-3 -5 0 -6 8 -4 7 3 22 -4 32 -15 20 -22 67 -46 138 -71 40 -14 70 -39 48 -39
-7 0 -10 -4 -7 -9 5 -7 -167 -9 -207 -2 -4 0 -16 16 -27 34 -11 17 -20 25 -20
17 0 -13 -1 -13 -10 0 -5 8 -12 11 -16 8 -3 -4 8 -30 26 -58 23 -36 30 -54 22
-62 -15 -15 -29 -3 -51 47 -11 25 -25 45 -32 45 -6 0 -8 7 -5 16 3 8 2 12 -3
9 -5 -3 -13 4 -16 16 -6 18 -11 13 -42 -35 -27 -44 -33 -62 -28 -86 12 -56 -7
-77 -87 -94 -14 -3 -34 -9 -45 -13 -10 -3 6 16 35 43 48 46 52 53 51 95 0 24
-3 37 -6 29 -16 -47 -36 -80 -48 -80 -21 0 -107 -93 -94 -101 7 -4 4 -9 -6
-12 -9 -4 -14 -3 -11 2 3 5 -6 9 -19 9 -14 0 -25 -4 -25 -8 0 -9 -112 -40
-144 -40 -14 0 -28 5 -31 10 -15 24 -22 -3 -10 -37 15 -43 27 -50 48 -28 9 8
39 18 67 20 29 3 61 10 72 16 11 6 26 8 33 5 15 -5 62 7 101 26 26 12 59 6
188 -34 l99 -31 46 23 c25 12 66 33 91 45 25 13 65 26 90 30 25 4 53 12 63 17
12 6 53 3 128 -12 107 -20 153 -27 234 -35 21 -2 48 -8 60 -13 47 -20 114 -39
108 -29 -4 7 0 8 12 4 10 -4 38 -12 64 -19 25 -6 51 -15 56 -19 6 -4 30 -11
53 -15 23 -4 45 -11 48 -15 3 -5 17 -9 32 -9 15 -1 38 -7 52 -15 14 -8 37 -14
52 -15 15 0 30 -5 33 -10 4 -6 10 -8 15 -5 5 3 19 -13 31 -35 13 -22 27 -40
32 -40 6 0 4 8 -4 18 -8 10 3 0 23 -23 40 -43 48 -65 22 -65 -10 0 -5 -9 15
-26 18 -14 31 -35 31 -47 -1 -22 -1 -22 -15 -3 -8 11 -15 16 -15 12 0 -5 -7
-2 -16 5 -14 11 -16 9 -14 -21 3 -52 1 -60 -13 -60 -7 0 -18 -9 -25 -20 -7
-11 -18 -17 -27 -14 -8 4 -15 1 -15 -5 0 -6 6 -11 13 -12 6 0 2 -5 -9 -11 -12
-5 -26 -20 -32 -32 -10 -23 -20 -24 -117 -16 -32 2 -97 -9 -109 -19 -8 -7 -28
-11 -44 -10 -32 4 -62 -15 -62 -37 0 -8 -4 -14 -10 -14 -5 0 -10 -5 -10 -11 0
-6 -8 -18 -17 -27 -21 -21 -158 -26 -178 -6 -7 7 -37 14 -68 16 -30 2 -52 7
-49 12 3 5 -2 7 -11 3 -9 -3 -19 -2 -22 3 -4 6 -17 10 -31 10 -13 0 -24 4 -24
9 0 6 -22 22 -49 38 -34 18 -46 30 -38 36 8 5 3 7 -13 6 -33 -3 -111 20 -125
35 -5 7 -36 20 -69 29 -70 19 -115 46 -96 57 9 5 0 13 -26 26 -22 9 -52 27
-69 39 -34 25 -85 42 -130 44 -16 0 -42 6 -57 12 -31 12 -359 -3 -458 -22 -63
-12 -159 -47 -177 -65 -7 -7 -30 -18 -50 -24 -21 -7 -45 -18 -53 -25 -8 -7
-40 -19 -70 -26 -30 -7 -61 -19 -68 -26 -13 -12 -27 -17 -44 -14 -5 0 -8 -4
-8 -9 0 -6 -7 -10 -15 -10 -8 0 -15 -4 -15 -10 0 -13 -62 -13 -116 0 -23 5
-72 12 -110 15 -38 3 -89 7 -114 9 -25 2 -54 8 -64 12 -12 5 -17 4 -13 -3 4
-6 -24 -9 -76 -8 -45 0 -94 -2 -109 -6 -17 -5 -28 -4 -28 2 0 6 -10 3 -22 -5
-12 -9 -31 -16 -42 -16 -31 0 -126 -49 -200 -104 -37 -28 -75 -50 -83 -48 -10
2 -14 -2 -10 -11 5 -15 -18 -32 -36 -28 -5 1 -7 -4 -5 -11 3 -7 -6 -22 -19
-34 -14 -13 -25 -26 -25 -31 -1 -13 -39 -61 -91 -116 -26 -27 -45 -52 -43 -55
3 -2 -4 -27 -15 -55 -11 -27 -21 -75 -23 -105 -2 -45 -7 -58 -28 -73 -20 -15
-24 -25 -20 -46 5 -29 5 -94 1 -138 -2 -17 -8 -24 -17 -20 -10 4 -13 0 -9 -14
5 -22 -34 -66 -48 -54 -4 5 -5 3 -1 -4 3 -6 2 -14 -3 -17 -4 -3 -7 -40 -6 -82
1 -52 -2 -80 -12 -89 -7 -8 -13 -21 -13 -29 0 -9 -5 -16 -10 -16 -6 0 -9 -3
-9 -7 4 -26 -4 -33 -43 -33 -69 0 -82 -2 -99 -17 -12 -10 -56 -15 -155 -19
-77 -2 -147 -7 -156 -10 -10 -3 -21 3 -27 13 -8 13 -13 15 -19 6 -6 -10 -14
-9 -36 2 -23 13 -27 13 -23 1 5 -11 -1 -12 -31 -4 -22 6 -38 6 -39 1 -4 -11
-79 -7 -108 6 -33 14 -99 27 -118 23 -16 -3 -14 -7 12 -27 25 -18 41 -21 74
-18 23 3 78 0 122 -7 44 -6 103 -13 130 -14 53 -4 141 -25 188 -44 16 -7 44
-12 63 -12 19 0 34 -5 34 -10 0 -7 25 -10 63 -8 34 1 68 -1 74 -5 14 -9 6 -46
-15 -69 -10 -12 -11 -18 -4 -18 13 0 17 -86 6 -115 -5 -13 -8 -14 -15 -3 -6 9
-9 2 -9 -19 0 -18 -9 -56 -20 -85 -16 -43 -17 -54 -6 -67 17 -20 28 -51 18
-51 -4 0 -16 -23 -27 -51 -21 -53 -50 -87 -81 -93 -38 -8 -84 -33 -77 -41 5
-4 3 -5 -3 -2 -17 10 -58 -26 -83 -75 -13 -24 -33 -50 -45 -60 -20 -15 -25
-15 -53 -1 -29 13 -35 13 -70 -4 -35 -17 -105 -22 -145 -12 -10 3 -30 16 -45
30 -16 14 -52 36 -80 49 -29 13 -53 28 -53 33 0 5 -6 7 -14 4 -8 -3 -27 9 -45
29 -19 21 -41 34 -56 34 -13 0 -26 4 -29 8 -9 15 -214 44 -321 46 -88 2 -182
-11 -208 -29 -29 -20 -30 -20 -50 14 -15 25 -15 30 -2 41 8 7 15 25 15 41 0
24 -7 31 -48 50 -27 13 -55 34 -64 50 -9 15 -26 29 -39 31 -15 2 -25 12 -30
30 -4 15 -16 40 -28 57 -24 34 -27 85 -6 121 8 14 14 34 14 45 0 11 -3 14 -6
7 -16 -41 -31 41 -17 96 7 24 30 30 37 10 2 -7 3 -5 2 4 -2 10 1 21 7 24 6 4
5 10 -3 15 -10 6 -8 9 7 9 30 0 40 31 17 48 -15 11 -18 11 -21 -3 -3 -15 -5
-14 -17 2 -13 17 -14 17 -20 1 -5 -13 -18 -18 -45 -18 -44 0 -69 23 -77 71 -8
55 -21 79 -38 73 -22 -9 -19 24 8 71 27 47 135 137 157 130 8 -2 22 0 30 5 13
9 13 10 -1 10 -20 0 -59 37 -59 56 0 12 4 12 20 4 32 -17 121 -2 148 26 25 26
85 33 98 12 5 -8 -3 -10 -28 -5 -26 4 -35 2 -35 -9 0 -11 11 -13 46 -9 25 2
73 7 106 10 33 3 105 17 160 30 151 36 215 46 234 35 10 -5 33 -5 54 0 21 4
37 4 37 -1 0 -20 178 2 240 29 52 23 124 97 115 119 -6 16 -9 15 -31 -12 l-25
-30 25 51 c29 59 45 134 27 134 -6 0 -19 -4 -29 -9 -9 -6 -29 -12 -44 -16 -16
-3 -28 -11 -28 -18 -1 -12 -73 -67 -89 -67 -17 0 -21 50 -6 78 22 40 41 62 53
62 7 0 19 11 28 25 l16 24 54 -36 c30 -20 56 -34 59 -32 2 3 6 16 8 29 3 14
12 45 22 70 9 25 18 59 21 75 3 17 10 34 15 40 5 5 9 22 9 39 0 16 3 26 6 23
4 -3 19 11 35 32 15 21 54 53 86 71 32 18 65 39 73 45 28 24 165 75 198 75 43
0 243 53 307 81 26 12 66 32 89 46 40 25 41 26 43 83 1 50 -2 59 -20 68 -28
12 -75 -13 -83 -45 -4 -13 -10 -23 -16 -23 -5 0 -14 -13 -19 -30 -9 -24 -17
-30 -41 -30 -31 0 -85 -27 -125 -63 -13 -12 -23 -15 -23 -9 0 20 -21 13 -64
-21 -63 -51 -65 -51 -88 -22 l-21 26 -18 -27 c-10 -15 -16 -31 -13 -35 2 -4
-17 -18 -43 -29 -36 -17 -68 -22 -130 -22 -45 -1 -80 -5 -77 -9 3 -5 1 -9 -4
-9 -13 0 -23 28 -13 34 4 3 27 8 50 12 24 4 59 20 83 39 23 18 47 31 55 28 7
-3 13 -1 13 5 0 5 9 12 20 15 28 7 25 31 -5 47 -31 16 -31 22 -2 35 12 6 21
17 19 24 -1 7 3 11 10 8 7 -2 13 -14 12 -26 -1 -24 11 -28 19 -6 8 19 85 15
97 -5 6 -8 10 -11 10 -5 0 5 5 4 12 -3 8 -8 17 -8 30 -1 10 6 26 9 36 8 9 -2
31 4 47 13 17 8 44 18 60 22 35 8 126 93 119 111 -3 6 11 31 30 54 43 51 37
81 -16 81 -27 0 -108 43 -108 57 0 2 5 1 10 -2 6 -3 10 -4 10 -1 0 16 -21 12
-45 -8 -42 -36 -155 -61 -217 -48 -5 1 -8 12 -8 25 0 18 17 31 85 66 136 71
160 110 99 166 -24 22 -24 23 -7 53 15 27 16 35 4 67 -15 42 -8 58 14 29 19
-25 19 -74 0 -101 -13 -18 -12 -23 5 -43 11 -13 20 -29 20 -37 0 -18 16 -17
24 2 3 9 18 15 40 15 27 0 40 -7 58 -30 l24 -31 35 38 c35 40 46 63 29 63 -18
0 -50 40 -50 63 1 19 2 18 14 -8 7 -17 25 -36 39 -42 25 -11 26 -15 20 -65 -4
-40 -12 -60 -35 -83 -25 -26 -31 -28 -41 -15 -7 9 -32 32 -57 52 -35 28 -50
34 -66 28 -12 -5 -23 -14 -26 -22 -7 -20 12 -99 23 -93 5 4 9 1 9 -4 0 -6 8
-11 18 -11 43 0 152 -91 152 -127 0 -8 -12 -25 -27 -38 l-28 -23 30 -8 c20 -5
44 -2 75 11 25 9 55 18 68 19 12 0 22 6 22 12 0 14 197 107 210 99 6 -4 23 3
39 14 35 25 42 26 35 6 -7 -17 11 -21 21 -5 3 6 11 10 17 10 7 0 6 -6 -2 -15
-11 -13 -9 -14 16 -2 38 16 111 63 119 77 3 6 11 7 17 4 6 -4 -6 -22 -28 -43
-195 -184 -250 -275 -181 -296 38 -11 106 -8 122 5 8 7 15 10 15 7 0 -4 18 0
40 8 22 8 40 11 40 7 0 -4 4 -2 8 4 4 6 40 23 80 39 39 15 72 31 72 35 0 13
77 48 120 54 46 6 199 19 235 20 11 0 26 6 33 13 17 17 27 16 46 -3 13 -12 16
-13 16 -1 0 14 40 37 66 37 8 0 13 4 10 9 -10 16 80 44 116 37 18 -4 52 -10
76 -13 36 -4 41 -3 36 11 -3 9 -13 16 -21 16 -8 0 -11 4 -8 10 3 5 1 19 -5 30
-6 11 -7 20 -2 20 5 0 22 10 36 21 l28 22 -31 15 c-17 8 -31 19 -31 25 0 6 3
7 7 4 3 -4 13 -1 22 7 24 20 55 25 69 9 7 -7 17 -11 22 -8 4 3 10 -2 14 -10 3
-8 14 -15 25 -15 15 0 19 5 14 16 -5 14 -2 14 28 -2 32 -16 33 -16 19 0 -13
16 -12 18 10 14 14 -2 24 -9 22 -16 -2 -9 4 -11 18 -7 11 4 20 2 20 -4 0 -6 4
-11 9 -11 5 0 7 8 5 18 -3 11 6 24 26 37 17 11 56 51 86 89 42 53 52 71 42 78
-10 7 -9 9 4 5 9 -3 21 0 26 6 13 15 42 97 42 117 0 23 102 27 124 5z m1666
-6 c0 -5 -6 -7 -12 -4 -7 4 -5 0 5 -8 17 -14 24 -47 9 -47 -4 0 -14 6 -21 13
-11 10 -13 9 -8 -5 5 -14 1 -18 -16 -18 -12 0 -27 4 -33 8 -15 10 -25 42 -14
42 6 0 9 3 9 8 -3 18 4 22 41 22 22 0 40 -5 40 -11z m-4040 -19 c0 -5 -4 -10
-9 -10 -6 0 -13 5 -16 10 -3 6 1 10 9 10 9 0 16 -4 16 -10z m1577 -72 c-2 -13
-4 -3 -4 22 0 25 2 35 4 23 2 -13 2 -33 0 -45z m2455 -17 c6 -10 17 -17 23
-15 13 5 122 -42 130 -57 3 -5 -1 -6 -9 -3 -9 3 -16 2 -16 -4 0 -15 28 -35 39
-28 5 4 29 -7 53 -24 34 -24 62 -34 119 -41 40 -6 93 -19 117 -29 24 -11 59
-22 78 -26 26 -5 51 -24 102 -79 75 -82 175 -146 186 -120 3 8 1 15 -4 15 -6
0 -10 5 -10 11 0 6 7 8 15 5 18 -7 38 35 29 59 -4 10 0 15 13 15 10 0 53 18
96 40 42 22 82 40 88 40 7 0 21 7 31 16 14 14 20 14 33 4 12 -10 15 -10 15 4
0 9 5 16 11 16 8 0 9 -11 5 -32 -13 -72 -13 -73 15 -70 24 2 27 -2 33 -38 3
-22 2 -49 -4 -60 -5 -10 -10 -29 -10 -41 0 -18 -2 -19 -15 -9 -16 13 -65 6
-65 -10 0 -5 -11 -21 -25 -36 -14 -15 -25 -30 -25 -34 0 -3 14 -19 30 -35 24
-23 30 -37 30 -71 0 -24 -5 -46 -11 -49 -6 -4 -14 -16 -18 -28 -6 -15 -26 -26
-67 -38 -32 -10 -51 -18 -41 -18 19 -1 23 -21 5 -39 -8 -8 -8 -15 2 -26 10
-13 9 -17 -6 -22 -11 -3 -30 -10 -43 -15 -15 -6 -35 -6 -56 1 -27 9 -37 22
-59 71 -14 33 -26 66 -26 74 0 7 -5 15 -11 17 -21 7 -19 90 2 125 17 28 25 32
52 28 32 -5 32 -5 -4 8 -23 8 -34 17 -31 26 2 7 -2 18 -9 23 -11 8 -11 9 2 5
9 -3 22 -1 30 4 10 6 8 9 -11 9 -36 0 -52 -14 -54 -47 -2 -16 -11 -41 -20 -55
-10 -15 -15 -32 -11 -38 3 -6 -5 -24 -19 -41 -25 -30 -26 -30 -28 -7 0 13 -1
31 0 41 1 9 -5 17 -14 17 -8 0 -12 5 -9 10 3 6 14 10 25 10 20 0 32 22 24 45
-4 8 -2 15 3 15 5 0 18 7 29 16 18 15 18 15 -3 5 -12 -6 -34 -8 -50 -5 -41 8
-83 -10 -77 -34 3 -10 -3 -28 -13 -40 -16 -20 -22 -21 -53 -12 -34 10 -101 5
-128 -9 -11 -6 -10 -10 2 -20 9 -8 16 -18 16 -24 0 -6 -11 0 -25 13 -47 44
-165 58 -165 20 0 -6 -5 -10 -11 -10 -6 0 -1 12 10 26 20 25 20 26 2 52 -10
15 -25 39 -34 53 -14 24 -20 26 -54 19 -92 -17 -129 -68 -79 -107 24 -18 45
-63 29 -63 -14 0 -73 60 -73 74 0 73 48 120 115 113 33 -4 36 -3 30 17 -3 11
-7 27 -7 34 -2 19 -14 14 -24 -9 -12 -25 -85 -54 -95 -37 -4 6 -12 8 -18 4 -6
-4 -25 1 -42 10 -19 9 -34 12 -38 6 -3 -5 -25 -21 -48 -35 -23 -14 -44 -31
-48 -37 -3 -5 -11 -10 -18 -10 -6 0 4 13 23 28 l33 28 -39 -3 -39 -4 52 26
c65 32 145 124 166 192 29 92 30 109 6 137 -13 14 -27 26 -31 26 -16 0 -88 63
-82 71 3 5 0 9 -5 9 -18 0 -12 18 7 23 38 10 62 6 74 -12z m-826 -27 c10 2 13
1 6 -1 -7 -3 -10 -9 -6 -14 3 -5 10 -7 15 -4 5 4 9 -2 9 -12 0 -10 3 -29 7
-42 5 -22 4 -23 -20 -19 -34 7 -35 -5 -2 -20 29 -13 31 -24 10 -46 -8 -8 -15
-19 -15 -25 0 -21 -18 -19 -71 7 -132 67 -193 108 -182 125 3 6 1 7 -5 3 -7
-4 -12 -2 -12 3 0 6 -7 11 -15 11 -8 0 -15 5 -15 10 0 6 19 10 43 10 l42 1
-27 15 c-16 8 -28 16 -28 17 0 2 34 2 75 0 41 -1 75 2 75 6 0 5 22 1 49 -9 26
-11 57 -18 67 -16z m-3286 16 c0 -5 -4 -10 -9 -10 -6 0 -13 5 -16 10 -3 6 1
10 9 10 9 0 16 -4 16 -10z m-50 -6 c0 -3 -15 -20 -32 -37 -27 -27 -30 -28 -17
-7 8 14 19 31 23 38 7 12 26 17 26 6z m1370 -121 c0 -34 -16 -36 -62 -6 -54
35 -108 55 -108 40 0 -18 -32 -47 -52 -47 -25 0 -23 9 13 41 37 33 85 34 119
4 21 -19 21 -19 44 6 17 18 23 35 20 55 -2 16 3 7 11 -21 8 -27 15 -60 15 -72z
m2217 101 c-3 -3 -12 -4 -19 -1 -8 3 -5 6 6 6 11 1 17 -2 13 -5z m-193 -59 c3
-8 1 -15 -4 -15 -6 0 -10 7 -10 15 0 8 2 15 4 15 2 0 6 -7 10 -15z m-484 -5
c0 -5 -2 -10 -4 -10 -3 0 -8 5 -11 10 -3 6 -1 10 4 10 6 0 11 -4 11 -10z
m-1305 -50 c54 -20 5 -153 -74 -202 -49 -31 -141 -68 -168 -68 -13 0 -23 -6
-23 -14 0 -19 -52 -28 -89 -15 -48 17 -49 83 -1 86 12 1 54 27 94 57 40 31 77
56 82 57 5 0 38 30 74 67 48 50 67 64 73 54 5 -7 19 -17 32 -22z m485 5 c-25
-26 -55 -32 -80 -14 -12 8 -11 9 5 5 11 -3 36 4 55 14 46 25 48 25 20 -5z
m-2231 -31 c-13 -14 -33 -30 -44 -36 -11 -5 -2 6 20 26 47 42 58 46 24 10z
m3176 16 c3 -5 2 -10 -4 -10 -5 0 -13 5 -16 10 -3 6 -2 10 4 10 5 0 13 -4 16
-10z m-52 -17 c-7 -2 -19 -2 -25 0 -7 3 -2 5 12 5 14 0 19 -2 13 -5z m-1306
-45 c-3 -8 -6 -5 -6 6 -1 11 2 17 5 13 3 -3 4 -12 1 -19z m1611 -6 c2 -7 -2
-12 -10 -12 -14 1 -48 24 -48 33 0 10 54 -9 58 -21z m2282 7 c38 -8 55 -8 63
0 6 6 16 11 21 11 6 0 -1 -11 -16 -25 -15 -14 -32 -25 -38 -25 -5 0 -10 -10
-10 -22 0 -20 1 -20 18 -5 10 10 24 17 30 17 15 0 16 -37 1 -42 -7 -2 -13 -17
-14 -33 -2 -17 -4 -39 -5 -50 -1 -19 -2 -18 -10 3 -11 25 -50 31 -50 7 0 -9 7
-27 17 -41 15 -24 15 -28 -5 -68 -12 -24 -22 -48 -22 -53 0 -17 -38 -45 -57
-41 -16 3 -18 14 -18 93 -1 64 4 95 14 108 13 15 12 17 -9 17 -27 0 -90 56
-90 78 0 17 29 41 50 42 8 0 26 9 40 20 30 23 26 23 90 9z m-2840 -40 c4 -16
12 -23 24 -21 10 2 24 -2 32 -9 8 -7 32 -15 52 -19 36 -7 36 -7 -22 -15 -58
-8 -59 -7 -87 25 -16 18 -29 41 -29 52 0 27 23 17 30 -13z m-3144 -14 c-11 -8
-27 -15 -35 -15 -9 1 -2 7 14 15 39 18 44 18 21 0z m-850 -110 c10 -55 -29
-123 -91 -156 -68 -37 -92 -89 -65 -140 7 -13 7 -19 0 -19 -5 0 -10 1 -10 3 0
1 -4 16 -9 33 -15 51 18 110 74 135 84 37 120 144 65 194 -11 10 -20 23 -20
29 1 23 49 -46 56 -79z m1540 37 c-10 -2 -22 0 -28 6 -6 6 0 7 19 4 21 -5 23
-7 9 -10z m-881 -32 c-2 -11 0 -20 5 -20 4 0 3 -16 -3 -35 -11 -38 -32 -45
-52 -18 -14 19 -8 38 23 74 21 25 32 24 27 -1z m485 -35 c0 -9 -7 -18 -15 -21
-8 -4 -15 -12 -15 -20 0 -7 -12 -26 -26 -41 -24 -26 -25 -27 -21 -6 3 13 1 26
-4 29 -18 11 -8 33 24 52 39 25 57 27 57 7z m-1370 -4 c-20 -4 -42 -11 -50
-15 -8 -4 -6 0 4 8 11 9 34 15 50 15 31 -1 31 -1 -4 -8z m-120 -21 c0 -15 43
-35 48 -21 6 19 31 12 48 -14 9 -14 13 -32 10 -41 -3 -9 3 -36 14 -61 25 -58
25 -84 -1 -117 -17 -22 -28 -26 -72 -26 -43 0 -63 7 -115 40 -44 28 -62 45
-58 55 3 8 15 46 28 83 16 52 29 74 52 90 35 23 46 26 46 12z m2010 -9 c0 -5
-6 -14 -14 -20 -11 -9 -15 -7 -19 9 -4 15 0 20 14 20 10 0 19 -4 19 -9z
m-1335 -21 c-3 -5 -12 -10 -20 -10 -19 0 -75 -49 -75 -66 0 -8 -7 -14 -15 -14
-24 0 21 65 58 84 37 18 61 21 52 6z m-225 -9 c0 -5 -13 -12 -30 -16 -16 -4
-37 -16 -45 -28 -13 -18 -15 -19 -15 -4 0 9 15 26 33 37 34 21 57 26 57 11z
m70 -1 c15 -8 19 -21 18 -58 l-1 -47 -12 40 c-8 25 -22 46 -41 57 -27 17 -28
18 -6 18 13 0 32 -5 42 -10z m244 -11 c14 -11 26 -25 26 -30 0 -19 -33 -8 -60
21 -23 25 -25 30 -10 30 9 0 29 -9 44 -21z m206 -16 c0 -9 3 -14 6 -10 4 3 13
-1 21 -9 8 -8 18 -12 23 -9 4 2 10 -9 14 -27 7 -33 -31 -125 -62 -150 -9 -8
-13 -8 -9 -2 4 7 0 14 -8 18 -8 3 -15 10 -15 16 0 6 6 8 13 4 18 -11 -84 87
-124 118 l-34 27 28 2 c69 4 85 3 80 -3 -2 -5 -10 -8 -18 -8 -8 0 -17 -4 -20
-10 -4 -7 3 -7 20 0 15 6 31 8 36 4 19 -11 8 16 -12 30 l-21 14 23 5 c48 9 59
7 59 -10z m450 -38 c-7 -9 -15 -13 -17 -11 -7 7 7 26 19 26 6 0 6 -6 -2 -15z
m5035 -5 c3 -5 1 -10 -4 -10 -6 0 -11 5 -11 10 0 6 2 10 4 10 3 0 8 -4 11 -10z
m-7095 -40 c0 -13 -1 -13 -10 0 -5 8 -10 22 -10 30 0 13 1 13 10 0 5 -8 10
-22 10 -30z m910 6 c-5 -15 -10 -31 -10 -36 0 -14 32 -21 46 -9 11 9 14 8 15
-2 1 -8 7 8 13 35 l12 50 12 -42 c7 -23 17 -42 21 -42 10 0 6 -147 -5 -175
l-7 -20 24 20 c36 30 39 36 39 88 0 26 3 47 8 47 4 0 5 -29 4 -65 -3 -54 0
-69 18 -92 11 -15 26 -28 33 -29 7 -1 20 -5 30 -9 13 -6 17 -2 17 19 0 14 10
46 22 71 22 45 22 46 4 79 -21 39 -54 59 -96 59 -16 0 -30 4 -30 9 0 15 55 8
87 -12 59 -35 82 -125 42 -163 -22 -21 -26 -62 -5 -54 9 4 16 -5 20 -25 3 -17
5 -33 3 -34 -2 -2 -20 9 -40 23 -48 34 -69 20 -33 -21 l24 -28 -30 -68 c-29
-66 -32 -69 -94 -95 -35 -15 -68 -33 -74 -40 -9 -11 -16 -8 -36 11 -13 14 -29
22 -35 18 -6 -3 -23 5 -37 19 -15 14 -36 27 -47 29 -11 2 -24 13 -30 26 -5 12
-17 22 -27 22 -20 0 -32 16 -18 23 6 3 5 4 -2 3 -7 -2 -12 -10 -10 -18 1 -10
-7 -17 -22 -20 -24 -5 -24 -5 -9 27 11 24 13 37 5 51 -8 14 -2 29 28 73 21 31
51 80 67 109 l30 53 27 -35 c35 -47 26 -63 -63 -115 -38 -22 -71 -47 -74 -55
-4 -10 -1 -13 9 -9 17 6 19 -8 2 -25 -7 -7 -10 -12 -7 -12 2 0 51 44 107 99
l104 98 -31 68 c-36 79 -35 72 -15 120 17 42 30 43 14 1z m1089 15 c25 -1 32
-5 27 -16 -3 -8 0 -28 6 -46 9 -26 8 -34 -7 -47 -16 -16 -17 -16 -6 5 11 21
10 23 -11 19 -13 -2 -22 -9 -20 -15 3 -18 -8 -13 -29 12 -12 14 -21 18 -26 11
-5 -6 -16 -14 -26 -17 -10 -4 -17 -13 -14 -20 10 -29 -69 -50 -103 -26 -12 8
-10 9 7 4 18 -5 22 -3 17 9 -3 9 -1 16 5 16 6 0 11 9 11 21 0 13 -4 18 -12 13
-7 -5 -8 -3 -4 5 5 7 10 10 13 8 2 -3 20 11 39 31 l34 36 -10 -32 c-5 -18 -5
-30 -1 -27 5 2 11 17 14 33 5 23 10 27 34 26 15 -1 43 -3 62 -3z m-1556 -51
c-7 -28 -13 -25 -13 6 0 14 4 23 9 20 5 -3 7 -15 4 -26z m2147 -16 c0 -2 -7
-4 -15 -4 -8 0 -15 4 -15 10 0 5 7 7 15 4 8 -4 15 -8 15 -10z m-1730 -3 c0 -5
-7 -11 -14 -14 -10 -4 -13 -1 -9 9 6 15 23 19 23 5z m-440 -21 c0 -5 -5 -10
-11 -10 -5 0 -7 5 -4 10 3 6 8 10 11 10 2 0 4 -4 4 -10z m6203 -32 c-17 -25
-24 -43 -17 -45 9 -3 9 -10 0 -28 -11 -25 -40 -33 -51 -15 -3 6 -17 10 -30 10
-12 0 -26 7 -29 16 -4 10 -2 13 7 7 26 -16 41 -10 90 43 28 30 53 54 54 54 2
0 -9 -19 -24 -42z m134 6 c31 -33 36 -36 60 -25 l26 12 -23 24 c-13 14 -18 25
-12 25 6 0 14 -5 17 -10 4 -6 10 -8 15 -5 12 8 30 -28 30 -61 0 -25 -2 -26
-37 -21 -20 4 -50 19 -67 35 -17 16 -42 36 -56 45 -20 14 -21 17 -6 17 10 0
34 -16 53 -36z m1087 1 c23 -42 12 -61 -40 -71 -39 -7 -74 15 -74 48 0 19 54
58 80 58 9 0 24 -16 34 -35z m-1334 21 c0 -2 -12 -12 -27 -21 l-28 -18 19 21
c17 20 36 29 36 18z m-4750 -31 c0 -2 -10 -9 -22 -15 -22 -11 -22 -10 -4 4 21
17 26 19 26 11z m-1170 -45 c-8 -5 -22 -9 -30 -9 -10 0 -8 3 5 9 27 12 43 12
25 0z m6581 -13 c-13 -13 -26 -3 -16 12 3 6 11 8 17 5 6 -4 6 -10 -1 -17z
m-6573 -43 c32 -22 27 -48 -13 -67 -20 -9 -41 -17 -48 -17 -7 0 -17 -12 -23
-27 -9 -23 -22 -31 -78 -48 -37 -11 -70 -23 -72 -27 -3 -5 -14 -8 -24 -8 -11
0 -26 -12 -33 -26 -9 -17 -17 -23 -21 -16 -8 13 20 72 35 72 5 0 18 20 29 44
20 47 81 102 104 93 8 -3 26 3 39 13 46 36 52 -6 7 -50 -33 -32 -29 -40 7 -15
13 9 28 34 34 55 13 44 23 48 57 24z m-633 -46 c15 -87 15 -106 -3 -112 -9 -3
-34 -12 -54 -19 -21 -8 -40 -13 -43 -11 -3 2 -3 1 0 -2 5 -8 -32 -38 -58 -47
-22 -8 -31 0 -81 72 -35 49 -37 56 -22 67 9 6 26 10 37 7 12 -4 29 3 43 16 20
19 25 20 35 7 13 -15 51 -18 51 -4 0 4 6 8 14 8 7 0 16 9 19 20 3 12 14 20 27
20 11 0 18 5 15 10 -3 6 -2 10 3 10 5 0 13 -19 17 -42z m385 1 c0 -5 -9 -9
-20 -9 -13 0 -18 5 -14 14 6 15 34 11 34 -5z m-234 -4 c3 -8 -1 -24 -10 -37
-9 -12 -16 -17 -16 -10 0 16 -20 16 -20 0 -1 -24 -27 -49 -44 -42 -13 5 -16
13 -11 33 9 34 12 36 28 22 12 -9 14 -8 14 6 0 10 1 24 2 31 2 17 50 15 57 -3z
m4634 -15 c0 -5 -4 -10 -10 -10 -5 0 -10 5 -10 10 0 6 5 10 10 10 6 0 10 -4
10 -10z m1830 6 c0 -3 -7 -12 -16 -20 -23 -23 -40 -19 -19 4 16 18 35 26 35
16z m-6235 -35 c-3 -11 -22 -39 -41 -62 -19 -22 -34 -46 -35 -52 0 -7 -5 -1
-11 13 -10 24 -12 22 -29 -34 -20 -62 -43 -88 -71 -80 -10 3 -22 -3 -30 -15
-17 -28 -25 -26 -30 4 -5 21 -2 25 13 20 30 -10 22 3 -12 21 -25 12 -37 14
-56 5 -32 -15 -43 -14 -43 4 0 12 7 14 28 10 26 -6 26 -6 7 10 l-20 17 20 -4
c12 -2 53 17 100 47 44 28 87 55 95 59 8 4 38 20 65 35 28 16 52 27 53 26 2
-2 1 -13 -3 -24z m3885 -41 c0 -5 -5 -10 -11 -10 -5 0 -7 5 -4 10 3 6 8 10 11
10 2 0 4 -4 4 -10z m-2410 -25 c0 -16 -9 -19 -35 -9 -13 5 -14 8 -3 15 20 13
38 11 38 -6z m-436 -52 c76 -55 79 -69 6 -24 -28 17 -55 31 -61 31 -15 0 -59
31 -59 42 0 19 50 -2 114 -49z m2926 23 c-7 -7 -14 -6 -21 1 -9 9 -7 12 9 10
14 -1 18 -5 12 -11z m2437 -9 c8 0 9 -6 2 -19 -8 -14 -6 -18 8 -18 13 0 15 -2
5 -8 -9 -6 -10 -16 -4 -33 18 -47 2 -52 -44 -14 -29 24 -50 34 -62 31 -10 -4
-27 1 -38 9 -15 11 -16 14 -4 15 9 0 27 11 40 25 20 19 32 23 55 19 17 -3 35
-6 42 -7z m-6357 -7 c0 -5 -2 -10 -4 -10 -3 0 -8 5 -11 10 -3 6 -1 10 4 10 6
0 11 -4 11 -10z m4221 -11 c-13 -13 -29 -18 -39 -14 -14 5 -12 8 8 20 40 21
57 18 31 -6z m-831 -4 c0 -7 -30 -13 -34 -7 -3 4 4 9 15 9 10 1 19 0 19 -2z
m450 -5 c0 -5 -4 -10 -9 -10 -6 0 -13 5 -16 10 -3 6 1 10 9 10 9 0 16 -4 16
-10z m178 -20 c11 -18 10 -19 -13 -8 -13 6 -22 15 -19 19 8 14 18 11 32 -11z
m-588 7 c0 -2 -10 -12 -21 -23 -22 -19 -22 -19 -10 4 10 18 31 31 31 19z
m-138 -39 c-8 -8 -9 -4 -5 13 4 13 8 18 11 10 2 -7 -1 -18 -6 -23z m378 22 c0
-5 -4 -10 -10 -10 -5 0 -10 5 -10 10 0 6 5 10 10 10 6 0 10 -4 10 -10z m437
-21 c-16 -22 -16 -22 -14 -1 0 11 5 18 9 16 4 -3 8 0 8 7 0 7 3 10 6 6 3 -3
-1 -16 -9 -28z m-4725 -13 c15 -3 30 -15 34 -28 4 -12 17 -30 29 -40 15 -12
21 -25 18 -38 -6 -24 -78 -90 -97 -90 -8 0 -17 -8 -21 -17 -3 -10 -18 -33 -33
-51 l-27 -33 1 35 c1 20 -3 36 -8 36 -6 0 -4 8 3 17 8 9 9 14 2 10 -7 -5 -11
4 -10 28 1 19 5 35 10 35 5 0 4 6 -2 14 -8 10 -8 16 3 25 11 9 15 9 20 -1 3
-7 3 -2 0 12 -4 14 -10 27 -13 30 -4 3 1 13 11 22 16 16 18 16 27 0 6 -9 11
-12 11 -7 0 6 5 3 10 -5 6 -9 10 -10 10 -3 0 6 -7 18 -15 27 -8 8 -15 25 -15
37 0 20 2 21 13 7 6 -9 24 -18 39 -22z m1025 8 c-9 -9 -28 6 -21 18 4 6 10 6
17 -1 6 -6 8 -13 4 -17z m625 12 c9 -4 22 -5 28 -1 5 3 20 -1 32 -9 12 -9 17
-16 11 -16 -7 0 -10 -7 -7 -15 4 -9 -2 -18 -17 -24 -28 -11 -54 -40 -54 -60 0
-7 -19 -21 -42 -30 -23 -9 -52 -26 -65 -39 -38 -35 -98 -27 -98 12 0 12 16 41
35 63 19 23 35 46 35 52 0 13 35 32 44 23 4 -3 4 1 0 11 -12 31 2 45 43 42 21
-1 46 -5 55 -9z m2842 2 c-3 -4 -12 -8 -20 -8 -8 0 -13 4 -10 8 3 5 12 9 20 9
8 0 13 -4 10 -9z m-3824 -24 c0 -8 -4 -14 -10 -14 -5 0 -10 9 -10 21 0 11 5
17 10 14 6 -3 10 -13 10 -21z m4020 16 c0 -5 -5 -10 -11 -10 -5 0 -7 5 -4 10
3 6 8 10 11 10 2 0 4 -4 4 -10z m295 -10 c7 0 15 -5 17 -11 3 -9 10 -9 26 0
12 6 22 8 22 3 0 -16 -29 -35 -44 -29 -8 3 -17 -1 -20 -9 -3 -8 -2 -12 3 -9 5
3 12 1 16 -5 10 -17 -22 -11 -40 7 -16 16 -16 17 4 25 11 4 21 10 21 12 0 3
-7 2 -17 -1 -11 -4 -14 -3 -9 5 4 7 2 12 -4 12 -6 0 -8 5 -4 12 6 9 9 9 12 0
2 -7 10 -12 17 -12z m-4379 -3 c4 -4 0 -7 -9 -7 -9 0 -18 4 -21 9 -7 10 20 9
30 -2z m3261 -8 c4 -16 8 -17 14 -7 5 8 9 9 9 2 0 -7 -8 -22 -19 -35 -15 -19
-16 -25 -5 -36 7 -7 17 -13 23 -13 13 0 15 -17 3 -24 -5 -3 -18 4 -30 14 -12
11 -29 20 -39 21 -14 0 -13 2 5 9 12 5 23 13 23 17 6 38 5 59 -5 65 -8 5 -7 8
2 8 8 0 16 -9 19 -21z m95 -11 c-7 -7 -10 -5 -7 8 5 29 6 30 12 16 3 -8 1 -18
-5 -24z m-3035 -38 c6 -14 14 -33 17 -42 3 -10 11 -15 20 -12 8 3 21 -4 29
-16 9 -12 20 -19 26 -15 11 6 31 -34 34 -67 2 -25 11 -22 27 7 7 14 15 23 17
21 10 -9 -18 -83 -37 -99 -24 -20 -17 -41 11 -34 29 8 38 -20 32 -93 -6 -75
-26 -99 -83 -101 l-35 -1 45 -11 c25 -7 44 -16 42 -22 -4 -15 -88 -5 -128 16
-21 10 -47 19 -57 19 -11 0 -37 10 -58 22 -39 21 -51 45 -26 52 136 37 156 50
188 124 23 52 24 88 5 108 -17 16 -30 19 -21 4 3 -5 -1 -10 -10 -10 -9 0 -13
5 -10 11 5 7 -3 9 -21 7 -18 -2 -29 -9 -29 -18 0 -8 -16 -20 -35 -26 -19 -6
-51 -31 -71 -54 -29 -34 -42 -42 -60 -37 -14 4 -46 -5 -86 -24 l-65 -30 -69
27 c-38 15 -69 30 -69 35 0 11 30 20 42 12 7 -3 8 -1 4 6 -5 7 7 26 28 47 20
20 36 45 36 55 0 11 7 22 15 25 8 4 13 10 10 15 -3 4 3 13 14 18 16 9 18 16
11 47 -5 19 -6 33 -3 30 4 -3 13 4 21 15 l15 22 12 -24 c11 -20 10 -25 -4 -36
-9 -7 -11 -13 -4 -13 6 0 18 7 27 15 25 25 46 19 46 -14 0 -16 7 -36 15 -44 8
-8 11 -18 7 -23 -4 -4 7 2 25 14 17 12 38 22 47 22 9 0 16 5 16 10 0 6 11 10
24 10 27 0 36 16 36 64 0 38 12 56 20 29 3 -10 11 -29 17 -43z m2833 44 c0 -2
-7 -4 -15 -4 -8 0 -15 4 -15 10 0 5 7 7 15 4 8 -4 15 -8 15 -10z m3575 -3 c-3
-6 -14 -11 -23 -11 -15 1 -15 2 2 15 21 16 32 13 21 -4z m-7455 -61 c0 -5 -19
-19 -41 -31 -55 -28 -72 -12 -35 32 18 21 26 40 22 53 -4 17 1 14 24 -12 17
-18 30 -37 30 -42z m4409 55 c22 2 23 1 6 -12 -11 -7 -15 -13 -11 -13 4 0 4
-5 1 -11 -4 -6 -13 1 -21 16 -15 29 -19 48 -6 29 4 -6 18 -10 31 -9z m466 5
c-3 -5 -10 -10 -16 -10 -5 0 -9 5 -9 10 0 6 7 10 16 10 8 0 12 -4 9 -10z
m-520 -9 c3 -6 -3 -8 -15 -6 -11 2 -19 1 -19 -3 1 -4 1 -14 0 -22 -1 -12 -4
-11 -12 4 -9 14 -8 20 2 27 18 11 36 11 44 0z m-442 -7 c3 -3 3 -12 0 -20 -4
-11 -7 -11 -19 1 -8 7 -14 16 -14 19 0 8 25 8 33 0z m447 -26 c-25 -9 -36 -5
-26 10 3 6 16 8 28 4 l22 -5 -24 -9z m2610 8 c0 -16 -18 -31 -27 -22 -8 8 5
36 17 36 5 0 10 -6 10 -14z m-2940 -5 c0 -5 -9 -11 -20 -14 -20 -5 -26 3 -13
16 9 10 33 8 33 -2z m3090 -27 c0 -8 -4 -12 -10 -9 -5 3 -10 13 -10 21 0 8 5
12 10 9 6 -3 10 -13 10 -21z m-6633 -22 c-7 -42 -45 -127 -54 -118 -6 6 47
156 55 156 2 0 2 -17 -1 -38z m3063 28 c8 -5 11 -10 5 -10 -5 0 -17 5 -25 10
-8 5 -10 10 -5 10 6 0 17 -5 25 -10z m295 0 c3 -5 1 -10 -4 -10 -6 0 -11 5
-11 10 0 6 2 10 4 10 3 0 8 -4 11 -10z m-448 -6 c-3 -3 -12 -4 -19 -1 -8 3 -5
6 6 6 11 1 17 -2 13 -5z m646 -9 c-3 -9 -8 -14 -10 -11 -3 3 -2 9 2 15 9 16
15 13 8 -4z m1042 5 c3 -5 1 -10 -4 -10 -6 0 -11 5 -11 10 0 6 2 10 4 10 3 0
8 -4 11 -10z m-1229 -25 l29 -15 -36 2 c-20 2 -36 8 -36 16 0 16 9 15 43 -3z
m59 -5 c3 -5 -1 -10 -9 -10 -9 0 -16 5 -16 10 0 6 4 10 9 10 6 0 13 -4 16 -10z
m1750 0 c3 -5 1 -10 -4 -10 -6 0 -11 5 -11 10 0 6 2 10 4 10 3 0 8 -4 11 -10z
m-1991 -15 c-4 -8 -7 -15 -9 -15 -2 0 -5 7 -9 15 -3 9 0 15 9 15 9 0 12 -6 9
-15z m1963 -17 c-3 -8 -6 -5 -6 6 -1 11 2 17 5 13 3 -3 4 -12 1 -19z m-1900
-14 c-9 -9 -28 6 -21 18 4 6 10 6 17 -1 6 -6 8 -13 4 -17z m665 10 c-13 -9
-26 -13 -30 -9 -8 8 17 25 38 25 9 0 6 -6 -8 -16z m-4535 -10 c-3 -3 -12 -4
-19 -1 -8 3 -5 6 6 6 11 1 17 -2 13 -5z m3783 -4 c0 -5 -10 -10 -22 -10 -19 0
-20 2 -8 10 19 13 30 13 30 0z m1000 0 c0 -5 -7 -7 -15 -4 -8 4 -15 8 -15 10
0 2 7 4 15 4 8 0 15 -4 15 -10z m2254 -4 c18 3 25 1 21 -6 -4 -6 8 -17 27 -24
31 -14 53 -33 73 -65 5 -9 4 -12 -2 -8 -6 4 -17 -1 -24 -10 -12 -15 -12 -16 4
-10 29 11 47 -2 41 -31 -11 -52 39 -133 90 -147 20 -6 34 -14 30 -18 -8 -8 27
-38 37 -31 3 2 5 -26 4 -61 -1 -56 -5 -69 -29 -94 -19 -20 -34 -27 -48 -23
-15 3 -19 1 -16 -9 6 -18 -34 -51 -44 -36 -4 7 -10 4 -14 -8 -12 -32 -66 -85
-103 -101 -34 -14 -78 -11 -115 8 -31 16 -126 97 -161 137 -65 74 -88 91 -125
91 -18 0 -29 4 -25 10 4 6 -5 10 -20 10 -14 0 -24 -4 -21 -9 4 -5 -10 -4 -29
1 -19 6 -33 14 -31 17 7 11 -22 43 -33 36 -6 -3 -11 -1 -11 4 0 6 5 11 10 11
6 0 8 11 4 25 -5 21 -3 25 14 25 12 0 24 5 27 11 5 7 13 4 26 -7 10 -9 16 -21
12 -27 -3 -5 -1 -7 5 -4 11 8 5 44 -9 53 -12 7 -11 54 1 54 6 0 10 9 10 19 0
31 11 50 25 45 9 -4 12 0 8 14 -8 31 26 75 54 69 17 -3 21 -1 13 8 -8 9 1 17
34 29 24 9 57 19 72 22 15 3 31 7 36 10 4 3 8 0 8 -5 0 -6 5 -11 11 -11 6 0 9
7 5 15 -4 12 0 14 19 11 14 -3 29 -7 34 -10 5 -4 13 -1 16 5 10 15 49 28 55
18 3 -5 18 -6 34 -3z m-3064 -19 c15 -4 10 -5 -12 -3 -21 1 -39 -2 -41 -8 -2
-6 -11 -6 -23 -1 -19 8 -19 8 1 13 11 2 24 8 29 13 6 5 12 5 15 0 3 -5 17 -11
31 -14z m465 4 c-5 -17 -2 -19 29 -16 26 2 32 0 24 -9 -14 -15 -70 -14 -76 2
-2 7 2 19 8 27 17 20 23 19 15 -4z m39 10 c3 -5 -1 -11 -9 -15 -9 -3 -15 0
-15 9 0 16 16 20 24 6z m63 -11 c-1 -12 -5 -16 -10 -11 -5 5 -6 14 -3 20 11
16 15 13 13 -9z m33 10 c0 -5 -5 -10 -11 -10 -5 0 -7 5 -4 10 3 6 8 10 11 10
2 0 4 -4 4 -10z m125 0 c3 -5 1 -10 -4 -10 -6 0 -11 5 -11 10 0 6 2 10 4 10 3
0 8 -4 11 -10z m71 -20 c18 0 18 -14 -1 -30 -9 -8 -15 -8 -15 -2 0 6 6 13 13
15 6 3 2 6 -10 6 -23 1 -29 11 -16 25 4 4 9 2 11 -3 2 -6 10 -11 18 -11z m54
6 c0 -11 -19 -15 -25 -6 -3 5 1 10 9 10 9 0 16 -2 16 -4z m2380 -35 c0 -28 -5
-41 -17 -45 -10 -4 -14 -4 -11 0 4 4 -4 15 -17 26 -40 31 -31 55 23 57 19 1
22 -4 22 -38z m-3560 9 c-8 -5 -22 -10 -30 -10 -13 0 -13 1 0 10 8 5 22 10 30
10 13 0 13 -1 0 -10z m1588 -15 c-3 -3 -9 2 -12 12 -6 14 -5 15 5 6 7 -7 10
-15 7 -18z m-1118 -7 c0 -4 -7 -8 -15 -8 -8 0 -15 4 -15 8 0 5 7 9 15 9 8 0
15 -4 15 -9z m-532 -18 c-7 -10 -14 -17 -17 -15 -4 4 18 35 25 35 2 0 -1 -9
-8 -20z m441 -6 c-15 -18 -22 -13 -13 10 3 9 10 13 16 10 5 -3 4 -12 -3 -20z
m432 17 c-7 -5 -17 -15 -22 -22 -6 -10 -9 -8 -9 9 0 16 6 22 23 22 16 0 18 -3
8 -9z m249 -6 c0 -8 -4 -15 -10 -15 -5 0 -7 7 -4 15 4 8 8 15 10 15 2 0 4 -7
4 -15z m155 6 c6 -11 -29 -34 -38 -24 -3 3 -5 -7 -4 -22 1 -17 -4 -30 -13 -33
-13 -5 -13 -3 -1 12 16 19 6 35 -11 18 -7 -7 -19 -12 -27 -12 -9 0 2 12 24 27
22 15 42 30 43 35 5 11 19 10 27 -1z m350 -1 c3 -6 -1 -7 -9 -4 -18 7 -21 14
-7 14 6 0 13 -4 16 -10z m-435 -20 c0 -11 -4 -20 -9 -20 -5 0 -7 9 -4 20 3 11
7 20 9 20 2 0 4 -9 4 -20z m-1095 0 c3 -5 2 -10 -4 -10 -5 0 -13 5 -16 10 -3
6 -2 10 4 10 5 0 13 -4 16 -10z m805 0 c0 -5 -2 -10 -4 -10 -3 0 -8 5 -11 10
-3 6 -1 10 4 10 6 0 11 -4 11 -10z m1377 -22 c-3 -8 -6 -5 -6 6 -1 11 2 17 5
13 3 -3 4 -12 1 -19z m-1937 2 c0 -5 -2 -10 -4 -10 -3 0 -8 5 -11 10 -3 6 -1
10 4 10 6 0 11 -4 11 -10z m212 -15 c-2 -14 -10 -24 -16 -22 -6 2 -19 0 -28
-5 -14 -7 -18 -5 -18 8 0 11 5 14 16 10 11 -4 15 -2 11 8 -7 17 1 26 23 26 13
0 16 -6 12 -25z m-478 0 c-4 -8 -8 -15 -10 -15 -2 0 -4 7 -4 15 0 8 4 15 10
15 5 0 7 -7 4 -15z m-3524 -14 c0 -10 -10 -33 -23 -52 -27 -40 -62 -50 -70
-19 -4 14 -11 18 -24 14 -17 -5 -17 -5 0 9 9 8 17 19 17 25 0 6 9 14 20 17 11
3 20 11 20 16 0 5 14 9 30 9 23 0 30 -5 30 -19z m3535 3 c8 11 15 15 15 9 0
-7 -5 -15 -11 -18 -6 -4 -8 -13 -5 -20 3 -9 -2 -13 -14 -12 -11 1 -17 3 -15 6
3 2 -3 9 -12 16 -9 7 -13 17 -9 24 6 9 12 7 22 -6 13 -17 15 -17 29 1z m121
-4 c0 -12 -4 -16 -9 -11 -5 5 -6 14 -3 20 10 15 12 14 12 -9z m194 0 c0 -5 -5
-10 -11 -10 -5 0 -7 5 -4 10 3 6 8 10 11 10 2 0 4 -4 4 -10z m40 6 c0 -2 -7
-7 -16 -10 -8 -3 -12 -2 -9 4 6 10 25 14 25 6z m530 -6 c-8 -5 -22 -9 -30 -9
-10 0 -8 3 5 9 27 12 43 12 25 0z m1265 0 c-3 -5 -13 -10 -21 -10 -8 0 -12 5
-9 10 3 6 13 10 21 10 8 0 12 -4 9 -10z m-1580 -24 c0 -15 -5 -22 -12 -19 -16
6 -16 16 -1 31 7 7 12 12 13 12 0 0 0 -11 0 -24z m-532 -6 c3 -11 3 -20 1 -20
-2 0 -8 9 -14 20 -6 11 -7 20 -2 20 6 0 12 -9 15 -20z m187 3 c0 -9 -3 -13 -6
-10 -4 3 -16 1 -28 -5 -21 -11 -21 -11 -2 11 23 25 36 27 36 4z m97 -23 c-1
-22 -17 -28 -17 -7 0 12 9 27 16 27 2 0 2 -9 1 -20z m147 12 c2 -4 -6 -12 -20
-19 -21 -10 -23 -9 -13 8 10 20 24 25 33 11z m676 -2 c0 -5 -2 -10 -4 -10 -3
0 -8 5 -11 10 -3 6 -1 10 4 10 6 0 11 -4 11 -10z m-74 -32 c3 -4 -1 -5 -10 -4
-8 1 -18 5 -22 8 -3 4 1 5 10 4 8 -1 18 -5 22 -8z m-1206 -27 c-6 -12 -5 -22
3 -30 9 -10 8 -11 -5 -6 -10 4 -18 13 -18 20 0 23 12 45 21 39 5 -3 5 -13 -1
-23z m550 19 c0 -5 -5 -10 -11 -10 -5 0 -7 5 -4 10 3 6 8 10 11 10 2 0 4 -4 4
-10z m-53 -36 c-3 -3 -12 -4 -19 -1 -8 3 -5 6 6 6 11 1 17 -2 13 -5z m2534
-11 c13 -16 12 -17 -3 -4 -10 7 -18 15 -18 17 0 8 8 3 21 -13z m-4441 -16 c0
-8 -21 -23 -47 -35 -58 -25 -107 -37 -99 -23 4 5 20 12 36 16 40 9 90 34 90
46 0 5 5 9 10 9 6 0 10 -6 10 -13z m2541 -40 c-10 -9 -11 -8 -5 6 3 10 9 15
12 12 3 -3 0 -11 -7 -18z m895 10 c4 -4 -8 -7 -27 -8 l-34 -1 35 -9 c19 -5 64
-8 100 -7 36 1 92 1 125 0 33 -1 75 0 93 2 31 4 32 3 18 -13 -19 -21 -12 -31
21 -31 25 0 29 10 11 28 -7 7 -8 12 -2 12 18 -1 41 -25 47 -50 4 -14 4 -20 2
-14 -3 6 -17 9 -31 6 -16 -3 -22 -8 -16 -16 25 -31 -7 -69 -73 -86 -22 -6 -47
-14 -55 -17 -8 -4 -70 -14 -138 -23 -117 -15 -125 -15 -153 2 -26 16 -29 16
-29 1 0 -9 -3 -13 -6 -10 -4 4 -20 -5 -36 -18 -16 -14 -33 -23 -37 -20 -5 2
-18 -5 -29 -16 -12 -11 -22 -16 -22 -11 0 14 -51 1 -57 -14 -3 -7 -48 -27
-101 -44 -54 -17 -106 -35 -117 -39 -11 -5 -65 -21 -120 -37 -55 -15 -110 -33
-122 -41 -26 -16 -37 -17 -28 -3 3 6 -3 10 -15 10 -12 0 -19 -4 -15 -9 3 -5 0
-13 -6 -17 -8 -4 -9 -3 -5 4 8 13 -25 17 -37 6 -9 -9 -107 -10 -107 -1 0 11
-38 9 -45 -3 -8 -13 -38 -13 -52 1 -7 7 -30 13 -53 15 -23 2 -48 11 -56 19
-20 19 -35 19 -28 0 4 -9 0 -15 -10 -16 -9 -1 -19 -2 -23 -3 -55 -13 -136 -19
-273 -21 l-165 -1 -79 -38 c-43 -20 -108 -56 -145 -80 -92 -60 -180 -90 -263
-91 -38 0 -68 -3 -68 -8 0 -4 -9 -2 -21 5 -17 11 -22 10 -33 -4 -14 -19 -48
-18 -54 2 -3 9 3 11 22 8 33 -7 43 8 22 30 -22 26 -58 111 -53 126 4 11 -3 12
-33 5 -29 -7 -54 -4 -99 10 -46 14 -58 15 -54 5 3 -8 9 -12 13 -9 4 3 10 -2
13 -9 3 -8 18 -16 34 -18 26 -3 27 -4 5 -10 -15 -4 -28 -1 -39 10 -11 12 -18
13 -20 5 -3 -7 -10 -10 -18 -7 -7 3 -24 -2 -38 -10 -25 -17 -108 -18 -124 -2
-4 4 1 15 12 23 14 11 15 14 4 10 -13 -4 -15 -1 -12 14 3 10 9 17 13 14 5 -3
12 0 16 6 4 8 9 7 16 -2 10 -15 3 65 -7 81 -3 5 5 19 19 31 14 12 23 26 19 31
-3 6 4 23 16 39 11 15 21 31 21 35 0 4 11 22 25 40 18 23 41 38 77 49 58 17
183 21 173 5 -3 -5 1 -10 10 -10 10 0 13 -5 9 -12 -5 -8 0 -9 14 -6 12 4 22 3
22 -1 0 -3 18 -6 41 -6 22 0 43 -5 47 -12 4 -6 16 -13 27 -15 11 -2 19 -9 18
-14 -2 -11 109 0 128 12 5 3 22 7 37 9 15 2 45 6 67 10 47 6 98 -3 90 -16 -4
-5 4 -5 18 0 14 6 28 7 31 4 3 -4 50 -6 103 -5 54 0 114 -3 133 -7 27 -6 41
-3 63 12 15 10 34 17 41 14 8 -3 42 3 75 14 50 15 65 16 81 6 11 -6 20 -15 20
-19 0 -5 6 -8 14 -8 8 0 16 -8 19 -17 2 -10 4 -3 4 15 0 18 2 34 4 36 2 2 33
10 69 17 36 7 72 18 80 24 38 30 241 61 225 35 -3 -6 0 -10 8 -10 8 0 17 7 21
15 3 8 12 15 20 15 10 0 13 6 10 18 -4 12 -3 13 3 5 6 -9 18 -10 41 -4 18 5
32 7 32 3 0 -4 6 0 13 8 7 9 34 16 67 18 31 2 69 12 86 23 42 25 114 35 156
20 47 -17 197 -24 214 -10 11 9 18 8 31 -2 15 -12 16 -12 10 4 -5 13 -1 17 21
18 15 0 21 3 15 6 -7 2 -13 8 -13 12 0 9 77 8 86 -2z m-256 -7 c0 -5 -2 -10
-4 -10 -3 0 -8 5 -11 10 -3 6 -1 10 4 10 6 0 11 -4 11 -10z m-1299 -57 c13
-16 12 -17 -3 -4 -17 13 -22 21 -14 21 2 0 10 -8 17 -17z m2424 -11 l30 -10
-30 -1 c-30 -1 -55 14 -55 32 0 6 5 5 13 0 6 -6 26 -15 42 -21z m-5405 -27
c-7 -8 -18 -15 -24 -15 -6 0 -2 7 8 15 25 19 32 19 16 0z m2104 -24 c-6 -6
-24 19 -24 34 1 6 7 1 15 -9 8 -11 12 -22 9 -25z m291 -41 c50 -12 109 -20
132 -19 49 3 67 -7 30 -17 -40 -9 -112 0 -220 29 -53 15 -119 27 -147 27 -27
0 -52 5 -56 11 -5 8 1 10 19 5 14 -3 28 -2 31 2 5 9 30 4 211 -38z m3018 7
c-2 -4 8 -12 22 -17 33 -12 35 -12 35 0 0 6 -3 9 -7 9 -17 -3 -24 2 -18 11 4
7 17 3 33 -9 15 -10 37 -22 50 -25 12 -4 22 -13 22 -21 0 -7 7 -15 15 -19 13
-4 14 -2 5 14 -10 18 -7 20 18 20 15 0 37 -6 47 -14 17 -12 17 -16 6 -30 -11
-13 -16 -14 -22 -4 -6 9 -9 9 -9 1 0 -6 5 -15 11 -18 6 -4 8 -13 5 -20 -3 -8
2 -19 10 -26 12 -10 13 -9 8 6 -6 13 -4 16 5 10 10 -6 11 -2 6 16 -7 23 -7 23
8 4 14 -19 16 -19 34 -3 12 11 23 14 33 8 8 -5 18 -6 24 -3 5 3 6 1 2 -5 -4
-7 -1 -12 8 -12 12 0 14 -7 9 -32 -3 -18 -13 -38 -21 -44 -9 -6 -13 -18 -9
-28 8 -20 -6 -21 -23 -1 -7 9 -19 14 -27 11 -7 -3 -13 1 -13 8 0 7 -9 21 -21
32 -17 16 -22 16 -30 4 -5 -8 -7 -21 -4 -28 3 -8 0 -10 -7 -6 -7 5 -9 0 -6
-14 4 -15 2 -19 -9 -15 -8 3 -12 12 -8 20 4 11 1 13 -10 9 -9 -3 -13 -2 -10 4
7 11 -74 88 -119 112 -17 9 -25 17 -17 18 11 0 11 3 1 15 -17 20 -31 19 -23
-2 4 -13 1 -12 -14 5 -11 12 -26 22 -33 22 -7 0 -11 3 -7 6 3 3 -6 17 -21 31
-15 13 -22 22 -16 19 6 -3 24 -2 40 3 28 7 57 -6 47 -22z m-1910 16 c-7 -2
-21 -2 -30 0 -10 3 -4 5 12 5 17 0 24 -2 18 -5z m1702 -33 c-2 -4 6 -5 18 -3
13 3 32 -4 47 -17 14 -12 35 -30 48 -41 12 -10 26 -19 31 -19 14 0 29 -24 35
-55 2 -17 5 -32 5 -35 1 -3 5 2 11 10 5 9 5 19 -2 27 -14 17 2 16 26 -2 11 -8
14 -15 8 -15 -7 0 -12 -5 -12 -11 0 -5 6 -7 13 -3 7 4 9 3 4 -2 -9 -9 -13 -10
-41 -13 -8 0 -17 -15 -21 -32 l-7 -30 -75 2 c-60 2 -77 5 -86 20 -7 11 -20 19
-29 19 -10 0 -18 7 -18 16 0 9 -5 12 -12 8 -7 -4 -5 2 6 14 17 20 17 22 2 28
-9 3 -16 12 -16 20 0 8 -4 14 -10 14 -5 0 -10 7 -10 16 0 9 -8 23 -17 30 -10
7 -13 14 -7 14 6 0 9 13 6 31 -3 23 -1 30 7 25 7 -4 18 -3 26 4 9 7 15 8 20 0
10 -17 28 -11 21 7 -6 15 -5 15 13 -1 11 -10 19 -22 16 -26z m430 20 c-4 -11
-2 -20 4 -20 6 0 11 -4 11 -10 0 -14 -17 -12 -57 7 -30 14 -32 18 -18 26 12 6
20 6 25 -3 5 -8 9 -7 13 4 9 24 30 20 22 -4z m-6317 -8 c3 -9 -3 -13 -19 -10
-12 1 -24 9 -27 16 -3 9 3 13 19 10 12 -1 24 -9 27 -16z m6002 -2 c0 -5 -2
-10 -4 -10 -3 0 -8 5 -11 10 -3 6 -1 10 4 10 6 0 11 -4 11 -10z m-2065 -21
c-22 -4 -51 -8 -65 -8 -20 -1 -22 1 -10 9 8 5 38 9 65 9 l50 -1 -40 -9z m-454
-16 c12 -15 12 -16 -5 -9 -11 4 -54 7 -96 7 -42 0 -82 4 -90 9 -10 6 18 10 81
10 79 0 99 -3 110 -17z m309 7 c11 -7 -1 -10 -42 -9 -32 1 -55 6 -52 11 7 11
76 10 94 -2z m3825 -20 c22 -25 15 -35 -20 -26 -16 4 -25 13 -25 26 0 26 22
26 45 0z m-59 -16 c13 -18 14 -28 6 -36 -22 -22 -83 27 -66 53 11 18 44 9 60
-17z m-1436 -59 c7 -9 8 -15 2 -15 -5 0 -12 7 -16 15 -3 8 -4 15 -2 15 2 0 9
-7 16 -15z m1260 -5 c0 -5 -4 -10 -10 -10 -5 0 -10 5 -10 10 0 6 5 10 10 10 6
0 10 -4 10 -10z m-103 -46 c12 -26 12 -26 -7 -9 -20 18 -26 35 -12 35 4 0 12
-12 19 -26z m-946 -47 c-10 -9 -11 -8 -5 6 3 10 9 15 12 12 3 -3 0 -11 -7 -18z
m997 -4 c2 -8 -6 -13 -22 -13 -20 0 -27 -6 -32 -27 -3 -16 -8 -34 -10 -41 -7
-23 -28 -7 -38 28 -9 29 -7 35 14 52 26 21 81 21 88 1z m-1411 -69 c0 -9 -6
-9 -24 -1 -17 8 -20 13 -12 23 12 15 36 0 36 -22z m1223 25 c0 -5 -4 -8 -9 -5
-5 3 -11 -3 -14 -15 -5 -20 -5 -20 20 -4 45 30 37 6 -23 -62 -32 -37 -53 -64
-46 -59 6 4 12 3 12 -3 0 -17 -19 -22 -40 -11 -23 13 -27 48 -5 56 8 4 12 10
10 15 -8 13 22 66 47 83 26 18 48 21 48 5z m-6665 -49 c-8 -13 17 -50 33 -50
9 0 12 -6 8 -16 -4 -11 -1 -14 13 -9 31 10 43 -17 26 -59 -8 -20 -20 -36 -26
-36 -8 0 -8 -4 -2 -12 6 -7 12 -23 15 -35 7 -26 -25 -37 -77 -27 -26 5 -36 13
-44 36 -16 46 -14 68 14 120 14 26 25 61 25 78 0 19 4 29 10 25 6 -4 8 -10 5
-15z m5478 6 c4 -10 1 -13 -9 -9 -7 3 -14 9 -14 14 0 14 17 10 23 -5z m-757
-22 c-4 -9 -9 -15 -11 -12 -3 3 -3 13 1 22 4 9 9 15 11 12 3 -3 3 -13 -1 -22z
m-4651 -4 c3 -5 2 -10 -4 -10 -5 0 -13 5 -16 10 -3 6 -2 10 4 10 5 0 13 -4 16
-10z m3517 -16 c19 -12 78 -16 78 -6 0 14 62 24 74 12 5 -5 18 -10 27 -10 10
0 21 -9 24 -20 7 -22 27 -28 23 -7 -2 7 8 12 27 12 17 0 33 4 36 9 4 4 19 0
33 -9 19 -13 23 -20 15 -26 -12 -7 -9 -21 13 -51 10 -13 7 -22 -13 -50 -14
-18 -28 -41 -32 -51 -5 -14 -3 -16 11 -8 11 6 24 6 33 0 17 -11 32 -12 25 -1
-2 4 9 15 25 24 16 10 29 13 29 8 0 -5 7 -6 17 -3 11 4 14 3 9 -5 -5 -8 2 -12
21 -12 16 0 35 -6 41 -12 10 -10 15 -10 21 1 8 12 10 12 14 0 2 -8 3 -4 1 8
-2 11 -7 29 -10 40 -3 10 -2 14 3 8 4 -6 29 -10 55 -10 39 0 44 2 35 14 -10
12 -8 14 8 9 11 -3 27 1 34 9 11 12 15 12 26 -4 12 -15 11 -19 -3 -25 -16 -6
-16 -7 0 -7 9 -1 19 -7 21 -13 3 -8 6 -6 6 4 1 10 5 17 10 15 5 -1 9 1 10 6 1
4 -1 6 -2 5 -6 -4 -37 23 -37 32 0 4 11 10 25 12 17 4 25 1 25 -9 0 -8 5 -11
10 -8 7 4 7 12 0 25 -17 31 -11 32 16 3 15 -15 21 -20 14 -10 -16 22 4 24 26
2 9 -8 12 -15 7 -15 -6 0 -9 -59 -4 -78 1 -1 17 15 36 35 23 24 34 45 31 56
-4 16 0 18 20 13 14 -4 24 -2 24 4 0 5 9 10 20 10 11 0 20 5 20 12 0 9 3 8 13
-1 10 -11 10 -14 0 -18 -7 -3 -13 -9 -13 -14 0 -6 5 -7 10 -4 6 3 10 1 10 -4
0 -6 11 -11 24 -11 14 0 28 -5 31 -10 10 -16 22 -3 29 31 4 22 10 29 20 26 10
-4 13 -1 9 8 -3 8 -9 12 -14 9 -5 -3 -9 0 -9 5 0 13 17 14 24 2 3 -5 14 -7 25
-4 20 5 81 -22 81 -36 0 -5 3 -17 7 -27 4 -11 3 -15 -4 -11 -6 4 -14 0 -17 -9
-5 -13 -9 -14 -20 -5 -11 9 -13 6 -13 -14 0 -14 4 -25 10 -25 6 0 7 3 4 7 -9
8 24 32 44 33 9 0 20 7 23 16 4 11 14 15 31 12 13 -3 22 -1 19 3 -3 5 0 9 6 9
6 0 9 8 6 18 -3 9 -1 24 4 32 9 13 10 13 11 0 1 -8 1 -19 0 -24 -1 -5 4 -6 11
-4 49 19 58 19 66 1 8 -21 42 -27 42 -8 0 7 6 16 13 19 6 4 2 4 -10 2 -27 -5
-29 0 -8 20 10 10 15 11 15 4 0 -7 7 -9 16 -6 8 3 13 2 10 -2 -3 -5 4 -16 15
-26 26 -22 21 -52 -8 -49 -12 1 -23 -3 -26 -10 -3 -9 3 -12 23 -9 32 5 44 -9
35 -39 -5 -16 -13 -20 -31 -16 -23 4 -23 3 -9 -13 8 -9 12 -20 8 -24 -4 -4 0
-4 8 -1 9 3 22 -1 29 -10 11 -13 10 -14 -5 -9 -14 6 -16 4 -10 -7 8 -12 6 -12
-8 0 -14 11 -17 11 -17 0 0 -12 -2 -12 -9 -1 -10 17 -21 15 -42 -4 -19 -17
-99 -28 -99 -13 0 5 -9 9 -21 9 -12 0 -17 -4 -13 -11 4 -7 -2 -9 -17 -7 -13 2
-23 9 -22 15 4 19 -25 23 -39 5 -11 -13 -11 -15 2 -7 11 6 12 5 4 -4 -18 -19
-64 3 -59 29 3 17 1 19 -16 10 -11 -6 -25 -8 -32 -4 -9 6 -9 5 0 -7 8 -10 9
-20 2 -29 -8 -13 -11 -13 -23 3 -7 9 -18 17 -25 17 -6 0 -11 6 -11 14 0 7 -10
16 -22 19 -18 5 -19 8 -8 21 15 19 2 20 -23 2 -15 -12 -15 -15 -2 -26 12 -10
12 -14 0 -26 -14 -15 -50 -20 -41 -6 2 4 -8 8 -23 7 -22 0 -27 -4 -23 -19 4
-16 2 -17 -15 -7 -18 9 -21 7 -22 -14 -4 -63 -5 -65 -22 -60 -9 3 -27 -3 -40
-13 -13 -11 -30 -17 -38 -14 -11 4 -11 6 0 13 11 7 9 9 -6 10 -32 2 -50 -2
-57 -14 -5 -9 -10 -9 -20 1 -18 18 -30 15 -20 -5 5 -10 6 -27 2 -38 -4 -11 -4
-32 1 -47 4 -16 3 -30 -2 -33 -5 -4 -9 -1 -9 4 0 6 -7 11 -15 11 -8 0 -15 7
-15 15 0 8 -6 15 -12 15 -9 0 -8 4 2 10 12 8 10 10 -10 10 -15 0 -31 5 -38 12
-17 17 -15 -4 3 -28 20 -27 19 -31 -15 -43 -20 -6 -28 -7 -25 0 4 6 -4 7 -22
3 -36 -9 -43 -13 -43 -25 0 -6 5 -7 12 -3 7 4 8 3 4 -5 -4 -6 -16 -9 -26 -6
-13 4 -19 -1 -23 -17 -7 -25 -58 -51 -83 -41 -8 3 -14 0 -14 -7 0 -10 -3 -10
-14 -1 -12 10 -13 8 -9 -10 5 -16 3 -20 -7 -14 -7 4 -16 2 -20 -6 -12 -18 -40
-20 -40 -3 0 8 -12 20 -27 26 -22 9 -24 12 -10 15 9 3 17 9 17 14 0 13 -12 11
-35 -7 -19 -14 -19 -16 -2 -25 25 -15 21 -26 -15 -38 -31 -10 -32 -10 -13 5
19 15 19 15 -10 8 -39 -9 -45 -13 -45 -29 0 -8 -9 -12 -24 -11 -18 2 -22 -1
-19 -15 3 -12 -1 -17 -12 -16 -12 1 -22 -10 -31 -33 -9 -25 -13 -29 -14 -15
-1 11 -2 24 -1 29 1 5 -5 6 -14 3 -8 -4 -15 -1 -16 6 0 7 -7 -9 -15 -35 -14
-45 -26 -58 -38 -40 -6 10 -73 9 -80 -1 -4 -4 -3 -5 1 -2 3 3 12 0 19 -6 8 -6
21 -9 29 -5 9 3 13 2 10 -4 -3 -6 -17 -10 -31 -10 -15 0 -23 -4 -19 -10 4 -6
12 -7 18 -4 7 4 8 3 4 -2 -5 -5 -13 -10 -18 -10 -22 -3 -23 -5 -9 -14 8 -5 11
-13 6 -17 -4 -4 -13 0 -20 10 -7 9 -21 17 -30 17 -9 0 -16 8 -16 21 0 12 -4
17 -11 13 -7 -4 -6 2 1 17 10 17 10 24 1 27 -6 2 -9 8 -5 13 3 5 -2 9 -11 9
-9 0 -13 5 -10 10 11 17 -17 11 -30 -7 -14 -19 -39 -8 -31 13 4 9 -2 14 -15
14 -12 0 -17 4 -14 11 4 6 13 8 21 5 9 -3 11 0 7 11 -4 11 -2 14 5 9 7 -4 12
-14 12 -23 0 -15 2 -15 18 0 22 20 29 65 6 47 -11 -10 -14 -10 -14 0 0 9 -4 9
-12 3 -7 -6 -26 -13 -41 -17 -17 -4 -25 -11 -21 -18 5 -7 3 -8 -5 -3 -18 10
23 47 43 39 9 -4 16 -1 16 6 0 7 7 10 15 6 8 -3 15 -4 15 -2 0 3 3 12 7 21 6
16 5 16 -20 0 -14 -9 -31 -14 -37 -10 -6 4 -17 1 -25 -5 -14 -11 -45 -6 -105
17 -8 4 -19 5 -25 4 -5 -1 1 8 14 19 13 11 20 20 16 20 -4 0 -1 7 6 17 11 13
11 17 2 20 -9 3 -10 10 -3 24 15 28 29 23 45 -13 8 -18 14 -28 15 -23 0 6 4 3
10 -5 7 -11 11 -9 19 13 6 15 15 27 21 27 6 0 9 -4 5 -9 -3 -5 -1 -12 5 -16 5
-3 10 2 10 11 0 16 2 15 22 -2 l22 -19 -20 26 c-10 15 -23 24 -29 21 -5 -3 -3
3 5 13 14 17 13 18 -7 13 -14 -4 -24 -1 -27 9 -5 12 -9 13 -21 3 -10 -9 -15
-9 -15 -1 0 6 -8 11 -17 11 -15 0 -16 -2 -3 -10 17 -11 16 -12 -25 -15 -16 -1
-35 2 -42 7 -7 6 -14 4 -19 -3 -4 -7 -3 -9 4 -5 6 3 16 -2 22 -13 10 -19 8
-19 -21 -9 -19 7 -28 15 -25 24 4 11 1 11 -18 -1 -12 -8 -26 -12 -30 -8 -4 4
-4 0 0 -10 3 -9 1 -24 -5 -31 -8 -9 -8 -17 -2 -20 5 -3 11 0 14 6 5 16 12 10
21 -18 5 -16 0 -23 -19 -32 -15 -7 -23 -17 -20 -22 3 -6 -2 -13 -12 -17 -10
-4 -23 -14 -29 -22 -10 -12 -11 -10 -9 13 3 27 3 27 -16 10 -14 -13 -18 -14
-15 -3 6 15 -25 42 -61 53 -17 6 -23 3 -23 -8 0 -19 -45 -50 -60 -41 -5 3 -15
3 -22 -1 -6 -4 -28 -8 -49 -9 -28 -2 -36 1 -32 12 4 9 -3 16 -16 20 -11 3 -21
9 -21 14 0 5 -12 9 -26 9 -14 0 -23 -4 -20 -9 3 -5 0 -14 -8 -20 -11 -9 -12
-6 -8 14 2 14 9 25 15 25 6 0 8 2 5 5 -3 3 -18 -1 -34 -9 -39 -19 -113 -35
-119 -26 -3 5 0 11 5 13 6 3 5 4 -1 3 -7 -1 -14 -12 -16 -24 -3 -22 -43 -71
-43 -53 0 5 -9 7 -21 4 -15 -4 -17 -8 -8 -14 8 -4 10 -11 7 -14 -4 -4 -16 -1
-27 7 -12 8 -18 17 -15 21 3 3 -3 3 -15 0 -12 -3 -21 -1 -21 6 0 6 5 11 11 11
5 0 7 5 4 10 -9 15 -25 12 -25 -5 0 -8 -5 -15 -11 -15 -6 0 -9 8 -7 18 4 12
-3 22 -20 30 -20 9 -23 9 -14 0 16 -16 15 -28 -1 -28 -18 0 -84 50 -66 50 8 1
-3 9 -25 19 -25 12 -34 20 -25 24 11 4 10 6 -2 6 -9 1 -23 9 -30 18 -8 9 -9
14 -2 10 6 -4 18 -1 26 7 12 13 17 13 36 -1 12 -8 25 -12 28 -9 4 3 2 6 -4 6
-6 0 -14 12 -18 27 -4 16 -9 22 -13 16 -14 -22 -59 -33 -85 -20 l-24 11 21 19
c12 10 16 16 9 13 -14 -8 -27 10 -14 19 6 3 7 13 4 22 -6 15 -5 15 17 0 14 -9
31 -17 40 -16 8 0 4 5 -10 10 -20 8 -22 12 -10 20 13 9 13 10 0 6 -8 -2 -21 2
-28 9 -7 7 -18 12 -25 10 -7 -1 -9 -1 -4 1 4 3 4 10 1 15 -5 7 -2 8 6 3 9 -6
11 0 5 24 -5 24 -3 31 9 32 88 7 106 4 106 -17 0 -19 9 -18 48 6 26 16 32 17
32 5 0 -8 5 -15 10 -15 6 0 10 5 10 10 0 18 22 10 27 -10 3 -11 9 -20 14 -20
13 0 4 44 -15 72 -13 20 -14 25 -2 25 8 0 12 -6 9 -14 -4 -9 0 -11 11 -7 9 3
13 10 10 15 -3 5 -1 9 4 9 6 0 13 -8 16 -17 5 -12 10 -13 18 -5 8 8 6 18 -6
38 -13 19 -15 29 -7 37 14 14 32 -8 24 -29 -3 -8 6 -15 24 -19 15 -3 40 -12
55 -19 19 -10 29 -11 37 -3 9 9 11 5 9 -13 -2 -20 2 -26 22 -28 14 -2 31 -11
38 -20 6 -9 12 -12 12 -7 0 5 14 -5 30 -24 25 -27 33 -31 46 -21 17 15 18 14
31 -25 10 -30 28 -39 50 -23 6 5 14 5 18 -2 7 -12 45 -14 45 -2 0 9 36 9 45 0
8 -8 55 3 55 13 0 20 18 7 24 -16 5 -18 14 -25 31 -26 14 -1 30 -2 37 -3 6 -1
13 5 16 13 3 10 0 12 -12 8 -11 -5 -15 -3 -10 5 5 7 1 9 -12 6 -14 -4 -20 0
-20 13 0 11 7 19 16 19 13 0 13 2 1 9 -12 8 -12 12 2 25 8 9 23 16 32 16 12 0
15 5 11 16 -4 11 -1 14 11 12 9 -2 18 -9 21 -17 3 -9 0 -11 -8 -6 -10 6 -12 4
-7 -9 7 -18 -13 -46 -32 -46 -6 0 -11 -4 -11 -8 0 -4 9 -8 19 -8 11 0 19 3 18
7 -1 4 3 7 8 7 6 1 9 -6 7 -14 -2 -8 4 -14 13 -14 8 0 15 -4 15 -10 0 -5 5
-10 10 -10 7 0 7 7 0 20 -6 11 -8 26 -4 32 4 6 3 8 -3 5 -5 -3 -10 0 -10 8 0
8 3 14 6 13 20 -2 31 3 26 12 -4 6 5 10 19 10 14 0 26 2 26 4 0 16 -15 36 -27
36 -8 0 -11 -4 -8 -10 4 -6 -5 -10 -19 -10 -14 0 -26 4 -26 9 0 5 -12 12 -26
15 -20 5 -23 10 -14 21 7 9 8 15 0 20 -5 3 -10 12 -10 18 0 7 5 4 11 -6 7 -12
15 -15 26 -8 12 6 22 4 32 -7 15 -14 16 -13 19 11 2 19 7 24 19 20 12 -5 15
-2 10 10 -3 9 -2 17 2 17 5 0 12 -6 14 -12 3 -7 6 -4 6 7 1 14 4 16 9 7 9 -13
42 -6 42 9 0 13 -18 11 -23 -3 -4 -10 -6 -10 -6 -1 -1 18 18 26 34 13 23 -19
41 -7 21 13 -10 9 -13 17 -7 17 6 0 11 7 11 15 0 8 -7 15 -15 15 -14 0 -13 3
1 25 12 18 22 24 35 20 20 -7 63 17 52 28 -11 12 11 7 27 -6 8 -7 15 -21 15
-31 0 -12 8 -20 24 -23 20 -3 22 -1 11 12 -10 12 -10 15 4 15 9 0 19 -7 22
-15 8 -20 17 -19 32 6 9 14 10 24 3 33 -8 9 0 18 30 33 40 21 74 20 111 -3z
m1284 4 c4 -7 3 -8 -4 -4 -7 4 -12 3 -12 -3 0 -5 7 -14 16 -19 21 -12 9 -58
-18 -65 -19 -5 -19 -5 -2 14 16 17 16 19 1 19 -10 0 -17 -4 -17 -10 0 -18 -29
-10 -40 11 -7 11 -10 22 -8 23 10 7 73 46 75 46 1 0 5 -5 9 -12z m-5146 -29
c0 -5 -7 -6 -15 -3 -8 4 -15 13 -15 21 0 13 3 13 15 3 8 -7 15 -16 15 -21z
m5031 8 c-10 -9 -11 -8 -5 6 3 10 9 15 12 12 3 -3 0 -11 -7 -18z m-1474 -19
c-3 -8 -6 -5 -6 6 -1 11 2 17 5 13 3 -3 4 -12 1 -19z m1838 -18 c3 -5 1 -10
-4 -10 -6 0 -11 5 -11 10 0 6 2 10 4 10 3 0 8 -4 11 -10z m-474 -23 c-6 -8 -8
-17 -4 -20 3 -4 2 -7 -4 -7 -6 0 -16 7 -23 15 -11 13 -10 14 3 10 8 -4 18 -2
22 4 3 6 9 11 12 11 3 0 0 -6 -6 -13z m719 -19 c0 -15 -18 -17 -36 -3 -18 14
-17 14 9 13 15 -1 27 -6 27 -10z m-2177 -4 c-7 -3 -9 -12 -6 -20 4 -10 0 -12
-10 -8 -20 7 -10 34 12 33 9 0 11 -3 4 -5z m824 -40 c-3 -3 -12 -4 -19 -1 -8
3 -5 6 6 6 11 1 17 -2 13 -5z m67 -29 c3 -8 1 -15 -4 -15 -6 0 -10 7 -10 15 0
8 2 15 4 15 2 0 6 -7 10 -15z m-3904 -21 c0 -8 -4 -14 -10 -14 -5 0 -10 9 -10
21 0 11 5 17 10 14 6 -3 10 -13 10 -21z m-364 -211 c-11 -11 -17 4 -9 23 7 18
8 18 11 1 2 -10 1 -21 -2 -24z m4514 7 c-8 -5 -19 -10 -25 -10 -5 0 -3 5 5 10
8 5 20 10 25 10 6 0 3 -5 -5 -10z m-2269 -32 c11 -21 11 -22 -4 -9 -10 7 -17
17 -17 22 0 15 9 10 21 -13z m-2181 -28 c0 -5 -6 -10 -14 -10 -8 0 -18 5 -21
10 -3 6 3 10 14 10 12 0 21 -4 21 -10z m2806 -150 c8 0 14 -4 14 -10 0 -5 -11
-10 -25 -10 -14 0 -25 6 -25 13 0 18 14 31 18 18 2 -6 10 -11 18 -11z m264
-11 c0 -5 -11 -9 -25 -9 -24 0 -32 10 -19 22 8 8 44 -3 44 -13z m237 -12 l43
-13 -29 -11 c-24 -9 -31 -8 -35 3 -6 17 -36 19 -36 2 0 -6 -3 -9 -6 -5 -8 8 3
37 13 37 4 0 27 -6 50 -13z m-587 -7 c0 -5 -13 -10 -30 -10 -21 0 -30 -5 -30
-16 0 -14 3 -14 15 -4 8 7 15 9 15 5 0 -13 -34 -34 -53 -35 -10 0 -16 -4 -12
-9 3 -5 1 -12 -3 -15 -5 -3 -9 5 -8 17 2 21 -10 37 -26 37 -5 0 -8 -9 -8 -20
0 -11 5 -20 11 -20 5 0 7 -4 4 -10 -13 -22 -25 -8 -25 29 0 34 3 39 20 36 11
-2 25 -7 30 -10 6 -3 10 -2 10 4 0 5 -6 12 -12 15 -7 3 -1 3 15 1 15 -2 27 0
27 4 0 4 14 8 30 9 17 1 30 -2 30 -8z m274 1 c18 -7 18 -8 3 -14 -9 -3 -17 -2
-17 4 0 5 -11 2 -25 -7 -14 -9 -25 -12 -25 -8 0 5 -5 2 -11 -6 -8 -12 -9 -11
-7 5 3 13 11 20 26 19 12 0 22 3 22 8 0 9 8 9 34 -1z m-162 -43 c-9 -9 -15 -9
-24 1 -11 10 -10 11 5 6 10 -5 17 -2 17 6 0 7 3 9 7 6 4 -4 1 -13 -5 -19z
m398 -1 c34 3 50 0 50 -8 0 -7 -13 -10 -34 -7 -24 3 -32 0 -29 -9 3 -6 11 -9
19 -6 8 3 14 0 14 -6 0 -6 -10 -11 -22 -11 -18 0 -20 -2 -8 -10 8 -5 11 -12 7
-16 -4 -4 -15 0 -26 10 -10 9 -25 16 -32 14 -9 -2 -13 5 -11 19 2 12 -2 24 -9
28 -8 6 -8 10 2 16 9 5 17 3 21 -5 6 -10 23 -13 58 -9z m-30 13 c0 -5 -4 -10
-10 -10 -5 0 -10 5 -10 10 0 6 5 10 10 10 6 0 10 -4 10 -10z m-210 -7 c12 10
12 9 2 -4 -15 -21 -5 -49 17 -49 19 0 41 -19 41 -34 0 -6 -4 -5 -9 3 -5 7 -19
15 -32 16 -38 4 -39 4 -32 21 4 10 -1 17 -16 21 -11 3 -21 12 -21 20 0 10 5
11 18 4 13 -7 23 -6 32 2z m91 -6 c-4 -4 -18 -3 -32 2 -23 9 -22 9 8 8 18 -1
28 -6 24 -10z m-687 -9 c3 3 6 0 6 -6 0 -17 -45 -15 -60 3 -10 12 -7 13 18 5
17 -4 33 -6 36 -2z m156 -58 c0 -5 -7 -7 -15 -4 -8 4 -15 8 -15 10 0 2 7 4 15
4 8 0 15 -4 15 -10z m410 -60 c0 -5 -9 -6 -20 -3 -11 3 -26 1 -33 -5 -7 -6
-26 -16 -42 -21 -29 -11 -29 -10 -10 5 44 36 105 49 105 24z m-434 -12 c4 -7
3 -8 -4 -4 -6 4 -21 2 -32 -4 -12 -6 -20 -7 -20 -1 0 8 15 15 42 20 4 0 10 -4
14 -11z m90 -6 c-10 -2 -22 0 -28 6 -6 6 0 7 19 4 21 -5 23 -7 9 -10z m49 0
c-3 -3 -11 0 -18 7 -9 10 -8 11 6 5 10 -3 15 -9 12 -12z m345 -3 c0 -5 -4 -9
-8 -9 -5 0 -9 7 -9 15 0 8 4 12 9 9 4 -3 8 -9 8 -15z m-200 -3 c0 -3 -4 -8
-10 -11 -5 -3 -10 -1 -10 4 0 6 5 11 10 11 6 0 10 -2 10 -4z m695 -36 c3 -5 2
-10 -4 -10 -5 0 -13 5 -16 10 -3 6 -2 10 4 10 5 0 13 -4 16 -10z m-55 -14 c-8
-8 -26 -17 -40 -21 -23 -6 -23 -5 5 14 34 24 57 28 35 7z"/>
<path d="M4795 5600 c3 -5 14 -10 23 -10 15 0 15 2 2 10 -20 13 -33 13 -25 0z"/>
<path d="M4840 5600 c0 -5 9 -10 19 -10 11 0 23 5 26 10 4 6 -5 10 -19 10 -14
0 -26 -4 -26 -10z"/>
<path d="M4224 5451 c4 -5 0 -12 -6 -14 -8 -3 -6 -6 5 -6 9 -1 17 6 17 14 0 8
-5 15 -11 15 -5 0 -8 -4 -5 -9z"/>
<path d="M4270 5400 c8 -6 24 -16 35 -22 20 -11 20 -11 1 11 -11 11 -26 21
-35 21 -14 0 -14 -2 -1 -10z"/>
<path d="M4260 5370 c0 -5 7 -10 16 -10 8 0 12 5 9 10 -3 6 -10 10 -16 10 -5
0 -9 -4 -9 -10z"/>
<path d="M5500 5549 c0 -5 5 -7 10 -4 6 3 10 8 10 11 0 2 -4 4 -10 4 -5 0 -10
-5 -10 -11z"/>
<path d="M5550 5540 c0 -5 5 -10 11 -10 5 0 7 5 4 10 -3 6 -8 10 -11 10 -2 0
-4 -4 -4 -10z"/>
<path d="M5799 5241 c-17 -14 -21 -23 -14 -30 8 -8 16 -2 28 19 21 35 18 37
-14 11z"/>
<path d="M5530 5185 c-19 -11 -21 -14 -7 -15 9 0 17 -4 17 -8 0 -5 6 -9 13
-10 6 0 23 -4 36 -8 22 -7 23 -6 11 17 -12 23 -29 39 -40 38 -3 0 -16 -6 -30
-14z m60 -20 c0 -12 -29 -3 -34 10 -4 13 -2 14 14 5 11 -6 20 -13 20 -15z"/>
<path d="M5205 5160 c-8 -13 5 -13 25 0 13 8 13 10 -2 10 -9 0 -20 -4 -23 -10z"/>
<path d="M5623 5143 c0 -12 4 -20 8 -17 4 2 15 -6 23 -18 9 -12 16 -18 16 -13
-1 6 -12 23 -25 40 -22 26 -24 27 -22 8z"/>
<path d="M4480 4746 c0 -8 5 -18 10 -21 6 -3 10 1 10 9 0 8 -4 18 -10 21 -5 3
-10 -1 -10 -9z"/>
<path d="M5980 4908 c0 -4 4 -8 9 -8 6 0 12 4 15 8 3 5 -1 9 -9 9 -8 0 -15 -4
-15 -9z"/>
<path d="M6010 4869 c0 -5 5 -7 10 -4 6 3 10 8 10 11 0 2 -4 4 -10 4 -5 0 -10
-5 -10 -11z"/>
<path d="M5957 4843 c-9 -14 -1 -68 15 -103 l16 -35 1 56 c1 30 6 60 12 66 17
17 -9 27 -28 11 -12 -9 -15 -9 -9 0 4 6 5 12 2 12 -3 0 -7 -3 -9 -7z"/>
<path d="M6110 4790 c0 -5 5 -10 11 -10 5 0 7 5 4 10 -3 6 -8 10 -11 10 -2 0
-4 -4 -4 -10z"/>
<path d="M5912 4759 c-30 -12 -19 -29 19 -29 23 0 30 4 27 17 -4 21 -17 24
-46 12z"/>
<path d="M6145 4760 c3 -5 8 -10 11 -10 2 0 4 5 4 10 0 6 -5 10 -11 10 -5 0
-7 -4 -4 -10z"/>
<path d="M5535 4390 c3 -5 8 -10 11 -10 2 0 4 5 4 10 0 6 -5 10 -11 10 -5 0
-7 -4 -4 -10z"/>
<path d="M5565 4390 c-3 -6 1 -7 9 -4 18 7 21 14 7 14 -6 0 -13 -4 -16 -10z"/>
<path d="M4970 4338 c0 -14 30 -22 41 -11 7 7 2 12 -15 15 -14 3 -26 1 -26 -4z"/>
<path d="M4935 4330 c3 -5 10 -10 16 -10 5 0 9 5 9 10 0 6 -7 10 -16 10 -8 0
-12 -4 -9 -10z"/>
<path d="M4217 4283 c-12 -21 -18 -94 -8 -110 9 -15 11 -11 12 22 1 22 3 52 5
68 3 27 -1 34 -9 20z"/>
<path d="M3921 4213 c-19 -41 -11 -49 14 -18 29 35 30 42 11 42 -8 0 -19 -11
-25 -24z"/>
<path d="M6510 3951 c0 -5 7 -11 14 -14 10 -4 13 -1 9 9 -6 15 -23 19 -23 5z"/>
<path d="M3143 3767 c-40 -44 -74 -105 -75 -136 -1 -16 -5 -28 -10 -25 -4 3
-8 -5 -8 -17 l0 -22 21 24 c22 25 52 86 64 129 4 14 14 33 23 43 8 9 13 19 10
22 -2 3 -14 -5 -25 -18z m-49 -115 c-8 -18 -18 -32 -20 -32 -3 0 -4 3 -2 8 20
41 32 61 35 59 2 -2 -4 -18 -13 -35z"/>
<path d="M2448 3173 c7 -3 16 -2 19 1 4 3 -2 6 -13 5 -11 0 -14 -3 -6 -6z"/>
<path d="M2300 2955 c-11 -13 -8 -15 20 -15 19 0 31 1 29 3 -2 1 -11 8 -20 15
-13 10 -19 9 -29 -3z"/>
<path d="M2255 2760 c-22 -4 -30 -8 -17 -9 13 0 21 -5 17 -10 -6 -11 31 -25
44 -17 5 4 28 7 50 8 35 1 38 3 23 13 -24 17 -70 23 -117 15z"/>
<path d="M2407 2746 c38 -21 119 -25 107 -4 -3 5 -18 7 -32 3 -21 -5 -23 -4
-14 7 9 11 1 14 -44 14 l-55 1 38 -21z"/>
<path d="M2190 2753 c0 -8 -10 -11 -29 -7 -39 8 -168 -14 -186 -32 -7 -8 -18
-14 -24 -14 -15 0 -14 -17 2 -27 6 -4 44 -6 82 -4 56 2 78 8 110 29 22 15 45
29 52 32 8 3 9 10 3 20 -6 10 -10 11 -10 3z"/>
<path d="M2526 2748 c3 -5 15 -8 27 -8 18 0 19 -2 7 -10 -11 -7 -12 -12 -4
-20 14 -14 59 -10 59 5 0 6 4 16 8 23 10 15 13 14 -50 16 -28 1 -49 -2 -47 -6z"/>
<path d="M2519 2556 c0 -1 -2 -11 -5 -23 -3 -19 0 -22 19 -19 12 3 30 5 39 5
28 1 10 28 -23 33 -16 3 -29 4 -30 4z"/>
<path d="M2590 2543 c0 -14 20 -39 20 -25 0 6 8 12 18 12 14 0 15 2 2 10 -18
12 -40 13 -40 3z"/>
<path d="M1820 2439 c0 -5 5 -7 10 -4 6 3 10 8 10 11 0 2 -4 4 -10 4 -5 0 -10
-5 -10 -11z"/>
<path d="M2150 2300 c0 -5 5 -10 10 -10 6 0 10 5 10 10 0 6 -4 10 -10 10 -5 0
-10 -4 -10 -10z"/>
<path d="M2075 2280 c-3 -5 1 -10 10 -10 9 0 13 5 10 10 -3 6 -8 10 -10 10 -2
0 -7 -4 -10 -10z"/>
<path d="M3358 2259 c-22 -12 -24 -39 -3 -39 16 0 29 22 23 39 -2 6 -9 6 -20
0z"/>
<path d="M2127 2243 c-11 -11 -8 -33 5 -33 6 0 8 3 5 7 -4 3 -2 12 4 20 11 13
-2 19 -14 6z"/>
<path d="M2262 2204 c-7 -8 -8 -14 -3 -14 10 0 25 19 20 25 -2 1 -10 -3 -17
-11z"/>
<path d="M2208 2178 c13 -24 17 -38 10 -38 -8 0 -9 -3 -2 -10 14 -14 44 -2 44
19 0 14 -2 14 -10 1 -7 -12 -10 -11 -16 5 -5 11 -17 29 -28 40 -18 18 -18 17
2 -17z"/>
<path d="M2419 2193 c-13 -16 -12 -17 4 -4 9 7 17 15 17 17 0 8 -8 3 -21 -13z"/>
<path d="M2335 2160 c-3 -5 -1 -10 4 -10 6 0 11 5 11 10 0 6 -2 10 -4 10 -3 0
-8 -4 -11 -10z"/>
<path d="M2260 2099 c0 -5 5 -7 10 -4 6 3 10 8 10 11 0 2 -4 4 -10 4 -5 0 -10
-5 -10 -11z"/>
<path d="M7826 4675 c10 -8 24 -14 29 -14 6 0 1 6 -9 14 -11 8 -24 15 -30 15
-5 0 -1 -7 10 -15z"/>
<path d="M8005 4552 c-16 -10 -36 -31 -44 -45 -13 -24 -12 -29 4 -47 10 -11
21 -18 25 -15 6 4 8 -2 12 -44 1 -11 5 -18 9 -15 9 5 19 -33 19 -73 0 -20 -8
-40 -22 -53 l-22 -20 37 0 c19 0 39 5 43 11 4 7 23 9 50 5 56 -7 127 28 95 48
-5 4 -22 -4 -38 -17 -20 -17 -35 -22 -53 -17 -30 8 -30 38 0 80 11 15 21 36
23 46 1 11 6 24 10 30 9 15 -2 24 -30 24 -13 0 -23 6 -22 13 3 26 -2 43 -22
67 -19 22 -22 23 -30 7 -6 -9 -15 -17 -21 -17 -6 0 -1 11 12 25 28 30 10 34
-35 7z"/>
<path d="M7923 4521 c-13 -11 -23 -26 -23 -35 0 -8 -9 -20 -20 -26 -28 -15
-25 -50 9 -87 25 -28 31 -30 41 -18 7 8 23 15 35 15 30 0 28 34 -5 77 -16 22
-21 41 -18 62 2 17 4 31 4 31 -1 -1 -11 -9 -23 -19z"/>
<path d="M7996 4342 c6 -4 14 -14 17 -22 4 -10 6 -8 6 8 1 15 -5 22 -16 22
-11 0 -14 -3 -7 -8z"/>
<path d="M6667 4779 c7 -7 15 -10 18 -7 3 3 -2 9 -12 12 -14 6 -15 5 -6 -5z"/>
<path d="M6710 4760 c8 -5 20 -10 25 -10 6 0 3 5 -5 10 -8 5 -19 10 -25 10 -5
0 -3 -5 5 -10z"/>
<path d="M1868 4364 c-54 -28 -41 -97 17 -92 27 3 30 7 33 44 4 52 -13 68 -50
48z"/>
<path d="M1990 4287 c0 -10 -12 -28 -27 -41 l-26 -23 34 -13 c63 -24 68 -23
59 9 -12 44 -39 90 -40 68z"/>
<path d="M2821 4231 c-8 -6 -9 -11 -3 -15 6 -3 14 -1 17 5 9 14 2 20 -14 10z"/>
<path d="M2020 3596 c0 -2 8 -10 18 -17 15 -13 16 -12 3 4 -13 16 -21 21 -21
13z"/>
<path d="M1895 3531 c-3 -6 4 -8 16 -6 30 6 37 15 11 15 -11 0 -23 -4 -27 -9z"/>
<path d="M2070 3511 c0 -6 4 -13 10 -16 6 -3 7 1 4 9 -7 18 -14 21 -14 7z"/>
<path d="M7782 3400 c7 -10 14 -18 15 -16 6 6 -9 36 -18 36 -5 0 -4 -9 3 -20z"/>
<path d="M7880 3410 c0 -5 5 -10 10 -10 6 0 10 5 10 10 0 6 -4 10 -10 10 -5 0
-10 -4 -10 -10z"/>
<path d="M6265 3214 c-17 -13 -17 -14 13 -14 18 0 32 4 32 9 0 16 -26 19 -45
5z"/>
<path d="M5308 3063 c7 -3 16 -2 19 1 4 3 -2 6 -13 5 -11 0 -14 -3 -6 -6z"/>
<path d="M6270 3060 c0 -5 5 -10 11 -10 5 0 7 5 4 10 -3 6 -8 10 -11 10 -2 0
-4 -4 -4 -10z"/>
<path d="M4112 2993 c4 -23 21 -35 29 -21 4 6 19 11 34 11 19 0 23 2 14 8 -8
5 -22 6 -31 3 -10 -3 -18 -1 -18 5 0 6 -7 11 -15 11 -10 0 -15 -7 -13 -17z"/>
<path d="M5988 2948 c9 -9 15 -9 24 0 9 9 7 12 -12 12 -19 0 -21 -3 -12 -12z"/>
<path d="M4025 2940 c-3 -5 -2 -10 4 -10 5 0 13 5 16 10 3 6 2 10 -4 10 -5 0
-13 -4 -16 -10z"/>
<path d="M3737 2763 c-15 -2 -25 -8 -22 -12 6 -11 55 -1 55 10 0 5 -1 8 -2 8
-2 -1 -15 -4 -31 -6z"/>
<path d="M7405 3040 c-3 -5 1 -10 9 -10 9 0 16 5 16 10 0 6 -4 10 -9 10 -6 0
-13 -4 -16 -10z"/>
<path d="M7310 2990 c0 -5 10 -15 23 -21 22 -12 22 -12 3 10 -21 23 -26 26
-26 11z"/>
<path d="M7400 2955 c0 -8 7 -15 15 -15 9 0 12 6 9 15 -4 8 -10 15 -15 15 -5
0 -9 -7 -9 -15z"/>
<path d="M7065 3020 c3 -5 8 -10 11 -10 2 0 4 5 4 10 0 6 -5 10 -11 10 -5 0
-7 -4 -4 -10z"/>
<path d="M7130 2930 c0 -5 5 -10 10 -10 6 0 10 5 10 10 0 6 -4 10 -10 10 -5 0
-10 -4 -10 -10z"/>
<path d="M5075 2700 c3 -5 8 -10 11 -10 2 0 4 5 4 10 0 6 -5 10 -11 10 -5 0
-7 -4 -4 -10z"/>
<path d="M5290 2676 c0 -8 5 -18 10 -21 6 -3 10 1 10 9 0 8 -4 18 -10 21 -5 3
-10 -1 -10 -9z"/>
<path d="M6566 2655 c-3 -8 -1 -15 4 -15 13 0 22 18 11 24 -5 3 -11 -1 -15 -9z"/>
<path d="M4852 2626 c-8 -18 -6 -22 9 -22 11 0 19 6 19 12 0 7 6 14 12 16 7 3
3 7 -9 10 -15 4 -24 0 -31 -16z"/>
<path d="M6509 2614 l-24 -15 25 7 c25 7 25 6 7 -14 -14 -15 -15 -22 -6 -28 8
-5 10 -3 4 6 -6 10 -2 11 19 6 16 -4 38 0 57 10 17 8 28 11 25 5 -4 -6 -3 -11
3 -11 6 0 15 8 20 19 9 16 7 18 -22 17 -18 -1 -38 -5 -44 -9 -7 -5 -13 -4 -13
1 0 18 -26 20 -51 6z"/>
<path d="M6153 2603 c-7 -2 -13 -10 -13 -17 0 -8 17 -12 50 -12 50 1 64 9 35
20 -8 3 -27 1 -41 -4 -22 -9 -25 -8 -20 5 3 8 4 15 3 14 -1 0 -8 -3 -14 -6z"/>
<path d="M6300 2595 c0 -8 7 -15 15 -15 8 0 15 4 15 9 0 5 -7 11 -15 15 -9 3
-15 0 -15 -9z"/>
<path d="M5965 2590 c-3 -5 -2 -10 4 -10 5 0 16 -3 25 -6 9 -3 16 -1 16 6 0 6
-4 8 -10 5 -5 -3 -10 -1 -10 4 0 14 -17 14 -25 1z"/>
<path d="M5585 2530 c3 -5 8 -10 11 -10 2 0 4 5 4 10 0 6 -5 10 -11 10 -5 0
-7 -4 -4 -10z"/>
<path d="M5520 2520 c0 -5 5 -10 11 -10 5 0 7 5 4 10 -3 6 -8 10 -11 10 -2 0
-4 -4 -4 -10z"/>
<path d="M5545 2490 c4 -6 11 -8 16 -5 14 9 11 15 -7 15 -8 0 -12 -5 -9 -10z"/>
<path d="M6020 2434 c-11 -12 -10 -13 6 -8 16 6 17 5 7 -7 -19 -19 -16 -28 7
-22 23 6 25 19 6 38 -12 12 -16 12 -26 -1z"/>
<path d="M5725 2390 c-3 -5 -1 -10 6 -10 8 0 8 -4 -1 -15 -18 -22 -3 -32 17
-13 14 15 14 18 0 32 -10 10 -18 12 -22 6z"/>
<path d="M5369 2379 c-5 -24 -3 -56 3 -53 4 3 8 -2 8 -10 0 -9 5 -16 11 -16 6
0 9 7 5 15 -6 17 5 20 20 5 7 -7 11 -6 11 4 0 8 -4 14 -8 13 -4 -1 -16 9 -28
22 -12 13 -21 22 -22 20z"/>
<path d="M4710 2358 c0 -6 7 -8 15 -4 8 3 14 2 14 -2 -4 -21 2 -42 12 -42 5 0
7 5 4 10 -4 6 -1 17 5 25 7 8 9 16 4 16 -39 6 -54 5 -54 -3z"/>
<path d="M4951 2338 c0 -7 4 -22 9 -33 8 -19 9 -19 9 3 1 12 7 22 14 22 8 0 7
4 -3 10 -20 13 -30 12 -29 -2z"/>
<path d="M5790 2336 c0 -2 7 -6 15 -10 8 -3 15 -1 15 4 0 6 -7 10 -15 10 -8 0
-15 -2 -15 -4z"/>
<path d="M4350 2301 c0 -12 -5 -31 -10 -41 -7 -13 -7 -21 0 -25 5 -3 10 3 10
14 0 12 4 21 9 21 6 0 8 10 6 21 -6 31 -15 36 -15 10z"/>
<path d="M4380 2310 c0 -5 7 -7 15 -4 8 4 15 8 15 10 0 2 -7 4 -15 4 -8 0 -15
-4 -15 -10z"/>
<path d="M4650 2305 c11 -13 10 -18 -6 -31 -18 -14 -18 -15 4 -4 26 13 29 35
6 44 -14 5 -15 4 -4 -9z"/>
<path d="M3711 2290 c-14 -12 -18 -20 -10 -20 8 0 20 9 27 20 15 25 13 25 -17
0z"/>
<path d="M4615 2299 c-9 -14 -2 -20 14 -10 8 6 9 11 3 15 -6 3 -14 1 -17 -5z"/>
<path d="M5428 2283 c7 -3 16 -2 19 1 4 3 -2 6 -13 5 -11 0 -14 -3 -6 -6z"/>
<path d="M5320 2270 c0 -5 5 -10 11 -10 5 0 7 5 4 10 -3 6 -8 10 -11 10 -2 0
-4 -4 -4 -10z"/>
<path d="M5250 2248 c24 -10 24 -11 5 -18 -11 -5 -15 -9 -8 -9 6 -1 14 -9 16
-18 3 -13 5 -12 6 5 0 13 5 20 11 17 6 -4 7 1 3 12 -6 15 -4 16 8 6 13 -10 16
-10 16 1 0 9 -14 13 -41 13 -37 0 -39 -1 -16 -9z"/>
<path d="M5405 2230 c-4 -6 -21 -8 -41 -4 -22 4 -34 2 -34 -5 0 -6 -8 -11 -17
-11 -16 -1 -16 -2 1 -12 15 -8 21 -7 28 6 12 21 26 21 24 -1 0 -12 7 -19 22
-21 12 -2 22 2 22 8 0 7 6 10 13 7 10 -4 13 2 9 19 -5 25 -16 31 -27 14z"/>
<path d="M5136 2199 c-12 -12 -15 -19 -7 -19 15 0 41 -24 41 -38 0 -6 10 -8
22 -4 16 4 19 2 13 -8 -5 -9 -4 -11 3 -6 7 4 12 2 12 -5 0 -7 2 -10 5 -7 3 3
-1 17 -8 31 -8 15 -16 25 -19 22 -2 -2 -4 7 -4 22 1 33 -31 40 -58 12z"/>
<path d="M5595 2209 c-5 -8 -4 -10 3 -5 7 4 12 2 12 -3 0 -6 -4 -11 -10 -11
-5 0 -10 -4 -10 -10 0 -12 11 -13 30 0 13 8 13 11 -1 26 -13 12 -18 13 -24 3z"/>
<path d="M4286 2183 c-6 -14 -5 -15 5 -6 7 7 10 15 7 18 -3 3 -9 -2 -12 -12z"/>
<path d="M3907 2179 c7 -7 15 -10 18 -7 3 3 -2 9 -12 12 -14 6 -15 5 -6 -5z"/>
<path d="M4660 2170 c-9 -6 -10 -10 -3 -10 6 0 15 5 18 10 8 12 4 12 -15 0z"/>
<path d="M5157 2095 c-4 -8 -2 -17 2 -20 5 -2 11 4 14 15 6 23 -8 27 -16 5z"/>
<path d="M4930 6631 c-8 -6 -17 -8 -20 -6 -3 2 -7 -5 -7 -17 -1 -14 3 -18 15
-14 13 5 13 3 -2 -9 -24 -18 -15 -30 12 -16 11 6 22 24 24 41 5 32 2 35 -22
21z"/>
<path d="M1110 6566 c0 -9 5 -16 10 -16 6 0 10 4 10 9 0 6 -4 13 -10 16 -5 3
-10 -1 -10 -9z"/>
<path d="M1795 5739 c-4 -6 -5 -12 -2 -15 2 -3 7 2 10 11 7 17 1 20 -8 4z"/>
<path d="M1540 5245 c0 -8 -5 -15 -11 -15 -5 0 -7 5 -4 10 3 6 -1 10 -10 10
-11 0 -14 -6 -9 -25 4 -16 2 -25 -6 -25 -6 0 -10 -6 -7 -12 2 -7 0 -24 -5 -37
-6 -18 -4 -29 9 -44 13 -15 15 -21 5 -24 -6 -3 -10 -9 -7 -13 11 -18 -37 -32
-86 -25 -48 7 -56 3 -50 -29 1 -5 -6 -5 -15 -2 -10 4 -21 1 -26 -6 -13 -21 -9
-26 15 -21 22 4 22 4 2 -11 -11 -8 -26 -20 -32 -26 -10 -8 -13 -7 -13 1 0 7
-3 9 -6 6 -9 -8 23 -57 37 -57 6 0 7 5 4 10 -3 6 -1 10 5 10 17 0 40 26 40 44
0 9 9 25 20 36 16 16 28 19 54 15 23 -5 36 -2 45 9 8 9 22 16 32 16 10 0 21 5
24 10 3 6 11 10 16 10 6 0 7 -5 3 -11 -7 -13 18 1 50 26 23 17 17 26 -35 54
-33 18 -34 20 -31 75 2 31 1 56 -2 56 -3 0 -6 -7 -6 -15z m-8 -62 c-6 -3 -9
-10 -6 -16 4 -7 1 -7 -7 1 -12 11 -12 14 1 22 8 5 17 6 20 3 3 -3 -1 -8 -8
-10z"/>
<path d="M1400 4970 c0 -5 7 -10 16 -10 8 0 12 -5 9 -10 -3 -6 1 -13 9 -16 22
-8 20 -24 -3 -24 -10 0 -21 9 -24 20 -7 28 -24 25 -31 -5 -4 -14 -12 -25 -18
-25 -6 0 -1 -11 11 -24 15 -16 30 -22 44 -19 34 8 85 32 93 44 4 8 0 8 -14 0
-19 -10 -20 -8 -17 19 3 22 0 30 -11 30 -9 0 -22 7 -30 15 -18 17 -34 20 -34
5z"/>
<path d="M1547 4933 c-4 -3 -7 -11 -7 -17 0 -6 5 -5 12 2 6 6 9 14 7 17 -3 3
-9 2 -12 -2z"/>
<path d="M1603 4775 c-9 -10 -10 -16 -2 -21 6 -3 15 0 20 7 18 29 4 40 -18 14z"/>
<path d="M848 4473 c-10 -2 -18 -9 -18 -14 0 -6 -14 -23 -31 -39 -21 -19 -30
-34 -25 -45 5 -15 9 -15 40 4 18 12 43 21 55 21 27 0 27 17 -1 41 -17 14 -18
17 -5 13 13 -5 16 -2 11 10 -3 9 -7 15 -8 15 0 -1 -9 -3 -18 -6z"/>
<path d="M732 4430 c0 -14 2 -19 5 -12 2 6 2 18 0 25 -3 6 -5 1 -5 -13z"/>
<path d="M530 4355 c0 -10 7 -15 18 -13 21 4 19 22 -2 26 -10 2 -16 -3 -16
-13z"/>
<path d="M840 4356 c0 -13 90 -76 108 -76 13 0 14 6 3 33 -8 21 -111 61 -111
43z"/>
<path d="M930 4250 c20 -13 33 -13 25 0 -3 6 -14 10 -23 10 -15 0 -15 -2 -2
-10z"/>
<path d="M432 4213 c1 -10 -1 -24 -6 -31 -4 -7 -9 -39 -10 -70 -1 -31 -1 -51
2 -44 5 15 92 -66 92 -85 0 -19 20 -26 36 -12 28 23 -2 117 -33 104 -20 -7
-50 11 -56 35 -7 27 2 30 46 15 l38 -13 -17 26 c-17 26 -82 92 -91 92 -2 0 -3
-8 -1 -17z"/>
<path d="M608 4178 c-29 -10 -35 -22 -18 -33 6 -3 10 -15 10 -27 0 -14 5 -18
15 -14 8 3 38 -6 67 -19 29 -13 54 -22 57 -20 2 3 -2 16 -9 30 -9 16 -16 21
-20 14 -5 -6 -17 6 -31 32 -27 48 -33 51 -71 37z"/>
<path d="M825 4080 c3 -5 11 -10 16 -10 6 0 7 5 4 10 -3 6 -11 10 -16 10 -6 0
-7 -4 -4 -10z"/>
<path d="M410 4020 c0 -5 5 -10 10 -10 6 0 10 5 10 10 0 6 -4 10 -10 10 -5 0
-10 -4 -10 -10z"/>
<path d="M615 3910 c-3 -5 -3 -15 0 -20 10 -16 -21 -23 -47 -9 -20 10 -20 8 6
-19 26 -28 28 -36 22 -78 -9 -69 0 -96 33 -92 l26 3 -2 89 c-1 48 -4 99 -7
112 -7 25 -20 31 -31 14z"/>
<path d="M8980 3749 c-52 -21 -70 -48 -70 -106 0 -69 13 -93 49 -93 40 0 54
21 49 72 -3 29 1 55 14 81 27 54 14 68 -42 46z"/>
<path d="M8440 3504 c0 -15 64 -192 75 -207 11 -15 17 -17 35 -7 14 8 20 18
17 30 -7 25 19 48 35 32 7 -7 16 -12 21 -12 15 0 -20 41 -57 67 -20 13 -34 28
-31 34 4 5 -1 9 -9 9 -8 0 -17 8 -20 18 -5 15 -66 48 -66 36z"/>
</g>
</svg>
